<?xml version="1.0" encoding="utf-8" ?>
<svg xmlns="http://www.w3.org/2000/svg" xmlns:xlink="http://www.w3.org/1999/xlink" width="1024" height="1024">
	<path fill="#21292C" d="M506.215 161.796C512.892 161.594 516.125 161.151 521.669 165.61C534.682 176.077 546.444 187.348 558.48 198.895C566.516 206.605 574.658 214.227 582.326 222.307C592.621 233.153 601.969 244.375 611.47 255.879C652.302 305.323 689.423 361.773 705.793 424.491C708.824 436.103 710.135 449.014 711.378 460.918C712.106 467.89 711.886 474.849 711.716 481.84Q711.674 483.904 711.589 485.967Q711.503 488.029 711.376 490.09Q711.248 492.15 711.078 494.208Q710.908 496.265 710.696 498.319Q710.483 500.372 710.228 502.421Q709.973 504.469 709.676 506.512Q709.379 508.555 709.04 510.592Q708.701 512.628 708.32 514.657Q707.939 516.686 707.516 518.707Q707.093 520.727 706.629 522.739Q706.164 524.75 705.658 526.752Q705.152 528.753 704.605 530.744Q704.058 532.734 703.47 534.713Q702.882 536.692 702.253 538.659Q701.624 540.625 700.955 542.578Q700.286 544.531 699.576 546.469Q698.867 548.408 698.118 550.332Q697.369 552.255 696.58 554.163Q695.791 556.071 694.963 557.962Q694.135 559.853 693.268 561.727Q692.401 563.601 691.496 565.456Q690.591 567.311 689.647 569.147Q688.704 570.984 687.723 572.8Q686.742 574.616 685.723 576.412Q684.705 578.208 683.65 579.982Q682.594 581.757 681.503 583.509Q680.411 585.261 679.284 586.99Q678.156 588.72 676.993 590.425Q675.83 592.131 674.632 593.812Q673.434 595.494 672.202 597.15Q670.969 598.806 669.703 600.437Q668.437 602.067 667.137 603.671Q665.394 605.79 663.599 607.866Q661.804 609.942 659.958 611.972Q658.112 614.003 656.217 615.988Q654.321 617.972 652.378 619.909Q650.434 621.846 648.443 623.735Q646.452 625.623 644.414 627.462Q642.377 629.301 640.295 631.088Q638.214 632.876 636.088 634.612Q633.963 636.348 631.795 638.031Q629.627 639.714 627.419 641.342Q625.21 642.971 622.962 644.545Q620.714 646.119 618.428 647.636Q616.141 649.154 613.818 650.615Q611.495 652.076 609.137 653.479Q606.779 654.882 604.386 656.226Q601.994 657.571 599.569 658.855Q597.144 660.14 594.688 661.365Q592.232 662.589 589.747 663.753Q587.262 664.916 584.748 666.018Q582.235 667.12 579.695 668.159Q577.156 669.199 574.591 670.175Q572.026 671.151 569.438 672.064Q566.85 672.977 564.241 673.825Q561.631 674.674 559.001 675.457Q556.371 676.241 553.723 676.96Q551.074 677.678 548.409 678.331Q545.743 678.984 543.063 679.571Q540.382 680.158 537.688 680.679Q534.993 681.199 532.287 681.653Q529.58 682.107 526.864 682.494Q524.147 682.88 521.421 683.2Q518.696 683.52 515.963 683.772C509.665 683.148 503.323 683.367 497.043 682.719C477.506 680.705 458.521 675.248 440.277 668.104C426.71 662.792 414.595 655.354 402.667 647.033C374.226 627.196 352.663 604.887 335.823 574.383C332.53 568.417 329.123 562.382 326.411 556.127C319.027 539.094 313.254 519.724 311.294 501.205C310.802 496.55 311.014 491.748 310.809 487.063C310.486 479.691 309.852 472.219 310.14 464.846C310.489 455.9 312.152 446.657 313.918 437.89C315.155 431.753 316.194 425.521 317.777 419.461C321.641 404.68 327.355 390.828 333.011 376.694C337.76 364.827 344.253 353.832 350.54 342.748C353.661 337.246 356.394 331.474 359.619 326.048C363.286 319.877 367.512 313.937 371.464 307.941C381.909 292.093 392.482 276.897 404.257 262.002C408.081 257.166 411.669 251.908 415.744 247.305C424.381 237.549 433.925 228.449 443.078 219.177C449.384 212.789 455.379 206.095 461.68 199.691C471.174 190.043 494.499 166.842 506.215 161.796ZM508.464 183.559C498.565 189.628 483.76 205.757 474.918 214.032C464.451 223.827 454.294 232.959 444.464 243.479Q432.982 255.945 422.24 269.054Q411.498 282.163 401.531 295.871Q391.564 309.578 382.406 323.839Q373.248 338.099 364.929 352.865C362.219 357.758 359.298 362.519 356.819 367.537Q353.06 375.12 349.724 382.897Q346.387 390.675 343.484 398.624Q340.58 406.574 338.118 414.671Q335.656 422.768 333.643 430.988C329.246 449.482 329.804 467.684 329.556 486.487Q368.224 487.223 406.897 486.961C406.526 473.132 407.268 458.73 405.383 445.036C396.602 448.226 386.856 451.076 377.888 446.681C369.141 442.394 362.402 433.351 359.526 424.184C357.583 417.989 357.537 408.615 360.496 402.749C362.885 398.014 369.246 394.33 374.216 392.767C380.934 390.654 390.417 392.634 396.54 396.005C404.612 400.45 409.541 409.02 414.457 416.502C420.865 406.206 428.763 395.498 441.242 392.657C448.537 390.996 456.792 391.183 463.229 395.445C467.703 398.407 469.663 402.671 470.563 407.795C472.291 417.629 468.211 426.95 462.554 434.763C457.704 441.461 450.466 447.428 442.035 448.579C437.069 449.258 430.077 448.403 425.485 446.429L424.606 446.76C424.37 451.571 424.682 456.362 424.66 461.173C424.621 469.825 424.372 478.477 424.671 487.128C434.635 486.56 444.689 486.959 454.668 486.975L503.501 487.023C502.655 469.655 503.079 452.122 503.072 434.732L503.048 358.779C489.776 367.676 479.841 371.948 463.63 368.716C450.858 366.171 441.207 357.157 434.19 346.481C425.845 333.785 423.333 316.977 426.461 302.218C427.605 296.826 428.363 290.514 433.38 287.265C439.452 283.334 459.387 281.834 466.521 283.696C481.876 287.702 496.573 296.958 504.515 311C506.746 314.944 508.445 319.191 510.186 323.365L511.24 324.663C512.901 323.922 513.57 321.61 514.196 319.956C515.133 317.482 515.754 314.795 516.918 312.436C521.574 303.001 530.24 294.357 539.781 289.958C544.278 287.884 549.172 286.026 554.06 285.147C560.729 283.947 580.357 283.857 586.513 286.005C590.29 287.323 593.207 290.139 594.9 293.732C599.589 303.679 599.614 319.563 595.691 329.793C590.07 344.452 578.473 360.641 563.634 366.987C553.472 371.333 541.418 370.208 531.356 366.034Q526.18 363.866 521.4 360.928C522.147 367.231 521.713 373.592 521.604 379.924Q521.464 391.085 521.485 402.247C521.444 430.509 521.931 458.784 520.9 487.031L599.954 487.067C599.95 473.32 600.485 459.32 599.633 445.606C589.924 448.823 581.7 451.876 571.768 446.818C563.467 442.591 555.352 433.048 552.549 424.164C550.55 417.826 551.502 413.399 552.793 407.148C553.05 405.903 553.044 404.496 553.646 403.351C556.162 398.565 562.47 394.056 567.577 392.801C574.744 391.041 583.287 393.133 589.464 396.996C596.469 401.377 601.578 407.85 606.748 414.156C607.104 414.59 607.242 415.105 607.847 415.111L607.612 414.814L607.781 414.013L608.214 414.699C615.418 404.335 622.186 395.252 635.418 392.864C642.228 391.635 649.932 391.756 655.832 395.765C659.951 398.564 662.586 402.738 663.448 407.635C665.145 417.274 660.308 427.383 654.718 434.934C649.423 442.087 642.946 446.632 633.977 447.814C629.186 448.445 624.461 447.974 619.858 446.556C618.84 447.119 618.501 447.224 618.138 448.424C616.76 452.978 617.46 480.576 617.559 486.988L663.713 487.047C671.186 487.059 685.688 488.131 692.354 486.187C694.13 481.353 693.015 472.36 692.61 467.108C692.095 460.415 692.119 453.575 691.272 446.93C689.2 430.685 681.891 404.33 675.11 389.662C666.926 371.956 658.559 354.443 648.537 337.678C646.07 333.55 642.982 329.843 640.301 325.861C637.766 322.096 635.847 317.937 633.223 314.227C630.884 310.92 628.178 307.881 625.685 304.69L609.456 283.794C599.975 271.822 591.106 259.442 580.993 247.965C568.327 233.589 554.172 220.438 540.341 207.205C535.651 202.718 520.095 186.403 515.229 184.454C513.319 183.688 510.536 183.775 508.464 183.559Z"/>
	<path fill="#C5A47A" d="M606.603 622.79C609.782 623.121 612.971 623.525 616.157 623.768L612.968 626.217C612.475 626.228 611.981 626.228 611.488 626.257C610.671 626.304 609.862 626.468 609.039 626.377C607.272 626.181 604.568 625.251 603.555 623.78C604.485 622.77 605.288 622.959 606.603 622.79Z"/>
	<path fill="#86A77A" d="M640.254 409.64C642.111 409.596 644.235 409.46 645.922 410.306C646.202 410.976 646.412 411.574 646.402 412.312C646.338 417.057 641.804 423.998 638.418 427.083C635.724 429.54 633.652 429.802 630.104 429.627C629.89 429.564 629.676 429.504 629.463 429.438C627.438 428.804 624.632 427.704 623.823 425.556C623.157 423.785 623.851 421.844 624.807 420.335C628.011 415.277 634.559 411.048 640.254 409.64Z"/>
	<path fill="#86A77A" d="M573.03 411.168C574.18 411.153 575.251 411.208 576.383 411.439C581.568 412.499 587.859 417.668 590.623 422.103C591.721 423.864 592.411 426.029 591.702 428.069C591.166 429.611 589.235 430.289 587.878 430.958C585.954 431.101 583.971 431.163 582.113 430.569C576.743 428.851 571.999 423.765 569.628 418.726C568.615 416.572 568.304 414.768 569.126 412.523C570.489 411.346 571.278 411.432 573.03 411.168Z"/>
	<path fill="#86A77A" d="M377.631 410.569C378.908 410.497 380.217 410.406 381.492 410.549C387.24 411.195 393.179 416.031 396.52 420.586C397.72 422.222 398.956 424.671 398.314 426.762C397.837 428.318 396.411 428.706 395.105 429.408C393.564 429.97 391.675 430.418 390.031 430.428C386.655 430.449 383.155 427.99 380.923 425.653C378.101 422.7 375.165 418.268 375.448 413.99C375.568 412.161 376.327 411.651 377.631 410.569Z"/>
	<path fill="#86A77A" d="M446.185 410.57C448.745 410.345 451.284 410.068 453.828 410.529C454.304 411.08 454.716 411.33 454.792 412.093C455.117 415.361 451.236 420.838 449.295 423.412C446.392 427.262 443.648 429.558 438.779 430.237C437.032 430.094 435.113 429.685 433.441 429.125C432.222 428.716 431.122 427.813 430.652 426.591C430.151 425.291 430.529 423.847 431.112 422.646C433.876 416.953 440.487 412.748 446.185 410.57Z"/>
	<path fill="#86A77A" d="M563.173 303.209C568.111 303.14 573.152 303.481 578.089 303.716C578.787 307.037 579.296 310.25 579.222 313.65C578.991 324.187 575.265 335.31 567.462 342.67C561.306 348.477 555.105 350.197 546.858 349.951C542.566 349.219 538.467 348.359 534.939 345.596C531.843 343.171 529.851 339.736 529.487 335.801C528.789 328.245 533.495 319.127 538.387 313.597C545.014 306.106 553.588 303.781 563.173 303.209Z"/>
	<path fill="#86A77A" d="M453.053 302.596C459.972 301.93 466.643 302.901 472.994 305.776C481.41 309.586 489.231 317.679 492.453 326.367C494.224 331.144 495.401 337.454 493.087 342.197C491.134 346.198 487.329 348.412 483.275 349.832C475.974 351.873 469.279 351.762 462.426 348.355C453.967 344.149 447.969 336.228 445.097 327.337C443.398 322.075 441.223 311.973 444.1 306.96C445.76 304.066 450.087 303.38 453.053 302.596Z"/>
	<path fill="#A2754F" d="M407.087 625.096C417.009 624.847 426.818 623.645 436.785 623.728C459.941 623.92 483.038 625.878 506.185 625.278L572.019 623.326C583.256 622.955 595.45 621.293 606.603 622.79C605.288 622.959 604.485 622.77 603.555 623.78C604.568 625.251 607.272 626.181 609.039 626.377C609.862 626.468 610.671 626.304 611.488 626.257C611.981 626.228 612.475 626.228 612.968 626.217C593.058 644.029 556.796 658.605 530.382 662.426C509.727 665.414 487.291 662.664 467.561 655.796C462.605 654.071 457.834 651.769 452.932 649.887C442.551 645.903 432.361 642.002 422.773 636.286C417.232 632.982 412.249 628.94 407.087 625.096Z"/>
	<path fill="#A2754F" d="M383.015 562.764C405.642 562.238 428.276 562.903 450.903 562.933L571.668 562.906L627.646 563.417C640.781 563.534 656.21 561.928 668.897 565.251C666.718 570.216 663.267 574.745 660.232 579.213C651.943 591.413 644.708 602.281 631.06 608.871C610.356 602.729 585.416 603.554 563.832 603.78C542.135 604.007 520.46 604.884 498.77 605.197C479.063 605.482 459.372 604.76 439.67 604.775C429.814 604.783 419.93 605.338 410.072 605.571C405.703 605.674 400.425 605.244 396.167 605.987C393.211 606.503 390.482 608.566 387.584 607.384C376.772 602.974 356.093 575.407 351.31 564.633C354.959 562.141 377.322 562.818 383.015 562.764Z"/>
	<path fill="#86A77A" d="M331.411 506.046C351.575 505.368 371.807 506.902 391.972 506.894L541.751 506.825C574.88 507.087 608.115 506.646 641.25 506.495C657.551 506.42 673.832 506.126 690.133 506.545C688.493 516.867 685.241 526.994 682.05 536.92L679.425 543.931L453.822 544.037L389.787 543.986C373.836 544.057 357.025 545.037 341.224 542.889C336.201 532.182 332.444 517.679 331.411 506.046Z"/>
	<path fill="#21292C" d="M605.692 359.018C606.912 358.965 608.177 358.879 609.392 359.019C612.167 359.337 615.159 361.105 616.778 363.375C619.273 366.875 618.9 370.062 618.268 374.024C616.222 376.471 614.082 378.673 611.323 380.312Q609.993 380.442 608.659 380.518C604.4 380.735 602.38 378.792 599.394 376.114C597.966 370.521 598.101 367.845 600.38 362.562C602.065 361.149 603.769 360.081 605.692 359.018Z"/>
	<path fill="#21292C" d="M412.7 357.768C412.814 357.784 412.927 357.814 413.043 357.817C416.037 357.916 417.951 357.888 420.651 359.551C424.537 361.945 425.413 365.984 426.304 370.129C426.139 370.612 425.96 371.09 425.773 371.565C423.944 376.211 421.441 377.87 417.053 379.798C415.014 380.057 412.876 380.057 410.926 379.334C407.925 378.221 405.488 376.263 404.151 373.317C402.933 370.633 403.078 367.515 404.268 364.849C406.01 360.948 408.793 359.153 412.7 357.768Z"/>
	<path fill="#21292C" d="M506.43 223.223C511.476 222.887 515.798 223.059 520.8 223.937C526.176 229.381 531.875 232.835 533.895 240.832C535.469 247.068 533.855 253.721 530.528 259.125C526.775 265.222 521.49 266.848 514.933 268.413C511.346 268.784 507.907 268.837 504.42 267.771C498.286 265.897 493.652 261.047 490.905 255.379C488.468 250.351 487.741 245.32 489.73 240.03C492.91 231.575 498.467 227.027 506.43 223.223ZM510.603 238.831C508.279 240.586 506.166 241.777 505.656 244.882C505.3 247.044 505.545 248.924 506.943 250.675C507.861 251.825 510.793 253.454 512.248 253.574C512.458 253.591 512.669 253.552 512.88 253.54C515.298 252.192 517.468 251.159 518.238 248.287C518.764 246.326 518.685 244.204 517.584 242.456C516.456 240.666 514.553 239.401 512.497 238.953C511.905 238.823 511.2 238.844 510.603 238.831Z"/>
</svg>
