<?xml version="1.0" encoding="utf-8" ?>
<svg xmlns="http://www.w3.org/2000/svg" xmlns:xlink="http://www.w3.org/1999/xlink" width="1024" height="1024">
	<path fill="#05151A" d="M773.245 719.515C774.297 719.386 775.472 719.282 776.513 719.538C779.457 720.262 780.929 723.167 782.387 725.54C781.939 727.342 781.461 730.107 780.269 731.53C778.7 733.403 777.222 733.594 774.877 733.785C774.23 733.853 773.634 733.879 772.989 733.758C770.646 733.318 767.667 732.19 766.499 729.962C765.62 728.285 765.799 726.358 766.499 724.658C767.747 721.624 770.452 720.705 773.245 719.515Z"/>
	<path fill="#05151A" d="M279.354 724.796C280.433 724.43 282.956 724.711 283.995 725.186C286.268 726.224 287.485 728.984 288.57 731.074C288.121 732.889 287.704 734.493 286.363 735.868C284.043 738.247 280.931 738.055 277.875 738.025C275.189 737.852 272.553 737.039 270.504 735.248C269.25 734.152 268.34 732.701 268.267 731.002C268.204 729.511 268.841 728.246 269.856 727.205C272.513 724.479 275.864 724.805 279.354 724.796Z"/>
	<path fill="#05151A" d="M316.211 756.035C319.322 756.042 322.179 756.181 325.245 756.741C326.312 757.862 327.597 759.06 328.385 760.397C329.421 762.154 329.697 764.549 329.113 766.485C328.43 768.751 326.431 769.963 324.473 771.006C320.985 771.085 316.69 771.375 313.361 770.276C311.679 769.721 310.039 768.565 309.368 766.863C308.701 765.17 309.143 763.275 309.87 761.684C311.424 758.283 312.741 757.303 316.211 756.035Z"/>
	<path fill="#05151A" d="M733.937 725.175C737.052 724.882 739.627 724.588 742.276 726.552Q742.621 726.807 742.94 727.094Q743.259 727.381 743.547 727.699Q743.836 728.016 744.093 728.36Q744.349 728.705 744.57 729.072Q744.791 729.44 744.975 729.828Q745.159 730.215 745.304 730.619Q745.449 731.023 745.553 731.439Q745.658 731.856 745.721 732.28C745.986 734.181 745.584 736.196 744.326 737.688C743.184 739.044 740.864 740.277 739.107 740.38C735.363 740.897 732.875 741.23 729.55 738.891C727.68 737.576 726.276 735.74 725.976 733.429Q725.937 733.128 725.929 732.824Q725.921 732.521 725.944 732.218Q725.967 731.915 726.021 731.616Q726.075 731.318 726.159 731.026Q726.243 730.734 726.356 730.452Q726.469 730.171 726.61 729.902Q726.752 729.633 726.92 729.38Q727.088 729.127 727.281 728.893C729.162 726.567 730.959 725.46 733.937 725.175Z"/>
	<path fill="#05151A" d="M691.191 761.649C693.951 761.975 696.889 761.462 699.574 762.357C701.456 762.984 702.935 764.43 703.778 766.211C704.75 768.263 704.914 770.762 704.134 772.897C703.343 775.062 702.157 776.616 700.04 777.546C694.373 777.865 691.186 777.849 686.198 774.922C685.614 772.406 685.265 770.066 685.085 767.49C686.818 764.769 688.381 763.276 691.191 761.649Z"/>
	<path fill="#0A2225" d="M733.03 321.472C737.726 328.951 743.232 335.938 747.911 343.477C764.128 369.606 777.413 398.515 785.357 428.251C787.374 435.802 789.426 443.421 790.534 451.171C791.247 456.153 790.948 464.967 792.254 469.326C792.517 470.202 793.132 470.914 793.43 471.745C794.662 475.178 793.834 484.245 793.866 488.268C793.946 498.092 794.525 508.25 793.671 518.036C791.799 539.504 781.645 583.932 772.503 603.292C750.482 649.923 720.486 693.295 679.162 724.797C672.892 729.576 665.943 733.631 659.367 737.984C654.079 741.484 649.269 745.851 643.861 749.111C631.133 756.783 616.709 762.074 602.915 767.522C598.429 769.294 594.07 771.432 589.512 773.013C575.872 777.745 560.824 780.22 546.53 782.169C538.039 783.327 529.305 784.835 520.75 785.244C506.951 785.904 496.668 784.811 483.112 783.2C455.183 779.88 431.482 774.421 405.833 762.705C401.628 760.785 397.698 758.478 393.565 756.441C390.889 755.121 388.015 754.193 385.358 752.838C353.789 736.734 324.407 713.061 301.247 686.36C295.589 679.837 290.412 672.728 285.217 665.83C281.203 660.499 276.736 655.243 273.132 649.635C260.657 630.218 250.232 608.411 242.903 586.521C237.481 570.328 232.897 553.822 230.245 536.937C228.228 524.096 227.978 511.193 227.989 498.236C228.022 460.666 232.026 432.568 245.582 397.24C249.96 385.831 255.919 374.847 261.375 363.921C266.801 353.054 273.64 342.87 280.437 332.842C318.026 277.384 365.617 245.005 428.722 224.001C451.384 216.457 474.968 212.46 498.736 211.091C505.139 210.722 511.604 209.855 518.02 209.97C554.779 210.629 594.011 221.147 627.268 236.456C636.342 240.633 645.593 245.31 654.172 250.43C658.823 253.206 663.147 256.597 668.01 258.984C668.211 259.083 668.415 259.178 668.617 259.274C676.334 265.426 684.466 271.29 692.012 277.606C697.527 282.223 702.577 287.688 707.635 292.801C713.288 298.515 719.464 304.087 724.71 310.16C727.736 313.664 730.351 317.693 733.03 321.472Z"/>
	<path fill="#44695A" d="M415.613 641.487L417.562 643.169C415.023 644.46 412.802 646.104 410.508 647.779C409.496 647.236 408.918 646.971 408.375 645.934C409.095 644.394 411.092 643.607 412.55 642.723C413.5 642.734 414.742 641.903 415.613 641.487Z"/>
	<path fill="#173F40" d="M401.722 647.772C405.467 648.096 408.461 643.24 412.55 642.723C411.092 643.607 409.095 644.394 408.375 645.934C408.918 646.971 409.496 647.236 410.508 647.779C409.022 649.148 407.364 649.571 405.37 649.518C403.53 649.468 401.86 648.841 400.159 648.193L401.722 647.772Z"/>
	<path fill="#173F40" d="M415.613 641.487C419.418 640.445 426.577 638.202 430.27 639.846L430.516 640.407C432.428 640.81 434.311 640.699 436.229 640.937C429.813 641.325 423.84 641.475 417.562 643.169L415.613 641.487Z"/>
	<path fill="#152F2F" d="M617.392 650.631C610.4 650.541 604.802 644.858 597.897 643.581C597.093 643.432 597.388 643.648 596.972 643.105L599.004 642.985C599.372 642.359 599.227 642.637 599.558 641.933C599.869 641.275 600.267 640.957 601.015 640.763C602.121 640.478 603.036 640.78 603.981 641.312L601.638 641.792L601.418 642.438C605.932 646.077 613.299 646.402 617.392 650.631Z"/>
	<path fill="#95B48E" d="M618.133 645.187C622.674 643.35 627.065 642.589 631.901 641.978C629.871 643.656 627.594 645.307 625.728 647.153C623.307 647.013 620.374 648.442 618.31 647.163L618.133 645.187Z"/>
	<path fill="#E9E6D2" d="M523.387 591.158C523.804 593.017 523.49 593.925 522.459 595.534C521.405 597.179 520.22 598.76 519.078 600.344L518.759 600.732Q517.362 600.985 515.961 601.211C514.321 600.492 513.903 599.466 512.886 598.02C516.616 596.294 520.043 593.54 523.387 591.158Z"/>
	<path fill="#44695A" d="M615.453 599.227L618.633 598.998C619.442 600.713 620.022 602.051 621.502 603.276C620.83 604.842 620.674 605.769 619.014 606.52C617.332 607.282 615.053 607.145 613.423 606.295C612.737 605.937 612.354 605.401 611.92 604.792L612.832 602.701L615.453 599.227Z"/>
	<path fill="#35534D" d="M617.392 650.631C613.299 646.402 605.932 646.077 601.418 642.438L601.638 641.792L603.981 641.312C607.209 642.706 614.54 646.76 617.741 645.394C617.877 645.336 618.003 645.256 618.133 645.187L618.31 647.163C620.374 648.442 623.307 647.013 625.728 647.153C623.251 649.331 620.174 649.102 617.392 650.631Z"/>
	<path fill="#3D3C35" d="M279.264 578.035C281.615 577.957 287.059 577.127 288.849 578.853C291.095 581.018 289.657 586.179 290.931 587.362C291.377 587.776 292.026 587.891 292.574 588.156L292.274 588.616C290.949 588.535 290.261 588.61 289.244 587.615C288.837 587.216 288.422 586.215 288.182 585.745L288.224 586.469C288.267 587.308 288.275 588.137 288.272 588.977C287.367 587.421 286.601 585.857 285.859 584.219Q285.229 585.782 284.63 587.357L284.004 587.211C282.839 584.881 283.498 581.616 283.006 579.018L282.11 578.486L279.264 578.035Z"/>
	<defs>
		<linearGradient id="gradient_0" gradientUnits="userSpaceOnUse" x1="493.92429" y1="593.14532" x2="503.59833" y2="595.25073">
			<stop offset="0" stop-color="#CEDBC9"/>
			<stop offset="1" stop-color="#E7EDEC"/>
		</linearGradient>
	</defs>
	<path fill="url(#gradient_0)" d="M487.13 577.569C490.596 583.128 492.614 587.879 498.165 591.792C500.248 593.26 503.344 594.852 505.074 596.642C504.605 597.259 504.108 597.504 504.277 598.317C504.474 599.266 504.923 599.882 505.433 600.689C500.716 598.661 496.796 596.945 491.633 596.276C491.711 595.694 491.594 596.015 492.23 595.442L494.345 596.03L494.685 595.676C493.857 588.801 487.884 584.026 487.13 577.569Z"/>
	<path fill="#35534D" d="M282.11 578.486L283.006 579.018C283.498 581.616 282.839 584.881 284.004 587.211L284.63 587.357Q285.229 585.782 285.859 584.219C286.601 585.857 287.367 587.421 288.272 588.977C290.724 594.534 289.989 599.842 289.562 605.722C289.482 606.832 289.685 607.35 290.082 608.362C288.459 608.15 288.091 607.479 286.917 606.381C291.72 602.712 279.796 586.924 282.11 578.486Z"/>
	<path fill="#152F2F" d="M282.147 603.628C284.025 604.3 285.353 605.152 286.917 606.381C288.091 607.479 288.459 608.15 290.082 608.362C290.759 609.12 291.374 609.843 291.984 610.658C293.189 612.266 297.341 615.294 297.617 616.914C296.322 616.36 295.043 615.799 293.778 615.178L293.176 615.43C294.085 617.13 295.772 618.347 297.655 618.821C299.815 619.365 302.418 619.589 304.323 618.463C304.372 618.433 304.408 618.386 304.451 618.347Q305.69 617.716 306.833 616.923Q307.975 616.13 308.999 615.189Q310.023 614.248 310.91 613.177Q311.797 612.106 312.531 610.924C313.847 610.389 315.118 609.826 316.395 609.205L319.615 608.741C318.241 610.585 315.744 610.578 313.863 611.865C310.235 614.347 306.707 619.896 302.88 621.494C301.623 622.018 300.409 621.929 299.186 621.395C295.301 619.698 283.676 607.649 282.147 603.628Z"/>
	<path fill="#44695A" d="M276.68 577.966L279.264 578.035L282.11 578.486C279.796 586.924 291.72 602.712 286.917 606.381C285.353 605.152 284.025 604.3 282.147 603.628L282.024 602.969L284.038 603.01C285.097 602.347 284.991 602.304 285.317 601.079C284.565 597.886 282.314 594.849 280.149 592.44C278.479 588.674 278.665 583.005 278.018 578.813L276.68 577.966Z"/>
	<path fill="#E9E6D2" d="M640.009 608.575C640.62 608.511 641.375 608.382 641.997 608.481C643.248 608.681 643.927 609.242 644.706 610.169C644.847 611.736 644.544 612.909 643.862 614.309C640.866 620.464 635.368 623.55 629.245 625.809C628.126 626.149 627.204 626.301 626.036 626.347C625.402 625.869 625.03 625.786 624.802 624.971C624.203 622.831 625.544 620.228 626.604 618.42C630.026 612.587 633.655 610.169 640.009 608.575Z"/>
	<path fill="#E9E6D2" d="M588.962 609.518C592.967 609.337 596.849 609.785 600.301 611.968C605.822 615.459 608.027 622.067 609.226 628.134C603.972 626.908 598.818 625.912 594.692 622.137C591.107 618.857 589.102 614.347 588.962 609.518Z"/>
	<path fill="#35534D" d="M304.451 618.347C305.218 617.556 305.7 617.325 305.934 616.224C304.958 615.798 304.733 615.836 304.085 614.938C304.643 612.893 306.041 612.087 307.368 610.548C309.787 607.742 307.586 606.891 307.464 604.102C308.619 601.252 311.883 599.771 314.387 598.235L313.912 597.758L313.867 598.297C311.862 599.267 307.668 601.658 305.417 601.118C304.163 600.818 303.36 599.899 302.822 598.775C301.219 595.421 301.355 585.686 302.772 582.118C302.955 588.265 302.795 594.299 303.781 600.396C305.161 600.191 307.083 600.124 308.351 599.619C311.17 595.212 317.135 591.875 322.184 590.657L322.677 588.55L323.678 588.956C324.328 591.221 324.609 593.673 323.442 595.812C320.617 600.99 312.767 604.013 311.398 609.527L311.634 610.407L312.531 610.924Q311.797 612.106 310.91 613.177Q310.023 614.248 308.999 615.189Q307.975 616.13 306.833 616.923Q305.69 617.716 304.451 618.347Z"/>
	<path fill="#7DA47B" d="M308.351 599.619C311.17 595.212 317.135 591.875 322.184 590.657C320.574 594.666 312.986 597.861 309.164 599.337C308.896 599.441 308.622 599.525 308.351 599.619Z"/>
	<path fill="#C0CDB5" d="M274.653 616.145C276.015 616.018 277.552 615.782 278.909 615.983C282.326 616.49 286.02 620.084 287.868 622.812C290.147 626.18 292.893 632.655 292.069 636.836L290.914 637.017C284.413 634.671 279.491 631.026 275.732 625.172C274.512 623.272 272.309 619.588 273.039 617.229C273.233 616.602 274.104 616.416 274.653 616.145Z"/>
	<path fill="#C0CDB5" d="M744.813 617.578C746.487 617.599 746.521 617.413 747.679 618.583C748.176 620.965 746.721 624.123 745.663 626.225C742.465 632.575 737.79 636.794 731.051 638.908C730.247 638.993 729.834 639.047 729.07 638.704C728.332 638.374 728.025 637.653 727.802 636.891C726.793 633.457 729.27 628.646 731.094 625.896C734.801 620.307 738.603 618.874 744.813 617.578Z"/>
	<path fill="#E9E6D2" d="M375.871 651.495C379.546 651.398 382.558 651.821 385.806 653.692C392.619 657.617 394.987 664.682 396.823 671.819C396.66 671.829 396.497 671.842 396.334 671.849C391.048 672.053 386.12 671.193 382.129 667.463C377.518 663.153 376.157 657.554 375.871 651.495Z"/>
	<path fill="#E9E6D2" d="M639.978 652.612C641.674 652.431 643.23 652.077 644.827 652.841C645.468 653.606 645.769 654.049 645.959 655.06C646.504 657.945 644.158 661.912 642.597 664.275C639.508 668.953 636.153 671.349 630.703 672.425C628.697 672.714 626.667 672.858 624.649 673.04C625.586 668.656 626.996 664.239 629.295 660.364C632.048 655.724 634.949 653.906 639.978 652.612Z"/>
	<path fill="#E9E6D2" d="M588.156 651.952C592.588 651.944 596.846 652.543 600.628 655.02C606.704 659 608.493 665.92 609.822 672.595C604.689 672.661 600.499 672.29 596.329 668.873C591.191 664.663 588.916 658.346 588.156 651.952Z"/>
	<path fill="#E9E6D2" d="M424.557 652.105C427.43 651.799 430.244 651.9 433.125 651.994C432.659 656.125 431.975 659.825 429.957 663.545C427.701 667.705 424.775 669.793 420.365 671.204C418.196 671.727 416.082 672.132 413.867 672.402C412.921 671.912 412.472 671.608 412.071 670.565C411.513 669.111 412.174 667.082 412.668 665.705C414.827 659.692 418.703 654.795 424.557 652.105Z"/>
	<path fill="#C0CDB5" d="M692.77 622.228C697.272 622.884 701.865 624.182 705.531 626.963C711.509 631.498 713.686 638.237 714.8 645.323C709.482 644.434 703.687 643.318 699.496 639.68C694.341 635.206 693.229 628.661 692.77 622.228Z"/>
	<path fill="#C0CDB5" d="M324.253 619.623C325.519 619.609 325.494 619.355 326.485 620.264C327.448 624.457 325.352 629.17 323.537 632.911C320.435 639.307 315.531 640.368 309.307 642.525L307.616 642.451C307.277 642.001 307.094 641.628 307.009 641.064C306.316 636.453 308.307 630.304 310.996 626.635C314.311 622.109 318.936 620.451 324.253 619.623Z"/>
	<path fill="#E9E6D2" d="M613.591 554.215C615.113 554.812 616.15 555.45 617.233 556.677C620.726 560.636 622.061 565.867 621.53 571.084C620.976 576.536 618.513 579.255 614.547 582.594C614.137 582.237 613.772 581.843 613.395 581.451C609.375 577.265 606.54 573.526 606.808 567.398C607.048 561.912 609.622 557.817 613.591 554.215Z"/>
	<path fill="#E9E6D2" d="M405.95 554.885C406.172 554.876 406.393 554.847 406.614 554.856C408.552 554.939 410.235 556.704 411.402 558.115C414.013 561.273 414.836 566.554 414.297 570.509C413.603 575.605 411.115 578.603 407.272 581.68C406.707 581.815 406.1 581.845 405.523 581.91C404.202 581.151 402.92 580.388 401.903 579.231C399.362 576.34 398.644 571.435 398.934 567.727C399.367 562.173 401.738 558.348 405.95 554.885Z"/>
	<path fill="#C0CDB5" d="M302.772 582.118C302.855 580.637 302.686 579.723 303.555 578.495C307.888 576.434 313.271 577.631 317.921 578.032C319.538 578.382 320.936 578.333 321.955 579.814C323.364 581.858 322.312 586.088 322.677 588.55L322.184 590.657C317.135 591.875 311.17 595.212 308.351 599.619C307.083 600.124 305.161 600.191 303.781 600.396C302.795 594.299 302.955 588.265 302.772 582.118Z"/>
	<path fill="#E9E6D2" d="M510.184 553.435C512.958 553.831 515.226 555.565 516.989 557.705C519.352 560.572 520.048 565.091 519.608 568.688C518.922 574.285 515.733 577.86 511.444 581.116L510.738 581.368C508.476 580.625 506.46 577.852 505.282 575.897C502.888 571.923 501.826 566.92 502.995 562.382C504.12 558.012 506.405 555.699 510.184 553.435Z"/>
	<path fill="#152F2F" d="M727.916 588.689C728.197 585.345 727.435 581.01 729.29 578.115C731.508 576.864 733.188 577.442 735.591 577.941C738.026 577.906 740.356 577.853 742.772 578.237C743.661 578.452 744.393 578.554 745.165 579.063C745.212 579.209 745.248 579.36 745.305 579.502C745.592 580.22 745.959 580.66 746.399 581.279C747.827 583.295 747.754 585.255 747.361 587.624C746.549 592.519 743.783 597.72 740.468 601.331C738.654 601.722 736.204 602.405 734.485 601.56C733.313 599.931 733.624 597.075 733.021 595.053L732.864 594.543C731.99 595.032 731.376 595.353 730.369 595.515C729.379 595.674 729.414 595.45 728.655 594.916C727.787 592.893 727.931 590.851 727.916 588.689Z"/>
	<path fill="#173F40" d="M735.591 577.941C738.026 577.906 740.356 577.853 742.772 578.237C742.128 582.26 741.389 586.41 737.944 589.023C737.749 589.172 737.538 589.299 737.335 589.436C737.49 588.937 737.652 588.44 737.766 587.93C738.658 583.915 737.791 581.311 735.591 577.941Z"/>
	<defs>
		<linearGradient id="gradient_1" gradientUnits="userSpaceOnUse" x1="726.73053" y1="591.25543" x2="735.7796" y2="579.48364">
			<stop offset="0" stop-color="#A1B9A8"/>
			<stop offset="1" stop-color="#C6CDC1"/>
		</linearGradient>
	</defs>
	<path fill="url(#gradient_1)" d="M727.916 588.689C728.197 585.345 727.435 581.01 729.29 578.115C731.508 576.864 733.188 577.442 735.591 577.941C737.791 581.311 738.658 583.915 737.766 587.93C737.652 588.44 737.49 588.937 737.335 589.436C735.6 590.808 734.245 592.82 732.864 594.543C731.99 595.032 731.376 595.353 730.369 595.515C729.379 595.674 729.414 595.45 728.655 594.916C727.787 592.893 727.931 590.851 727.916 588.689Z"/>
	<path fill="#35534D" d="M718.063 590.237C718.764 592.292 719.07 596.847 720.927 597.948C722.12 598.655 722.625 598.502 723.848 598.161C725.685 596.471 726.73 594.325 727.225 591.89C727.443 590.82 727.685 589.756 727.916 588.689C727.931 590.851 727.787 592.893 728.655 594.916C729.414 595.45 729.379 595.674 730.369 595.515C731.376 595.353 731.99 595.032 732.864 594.543L733.021 595.053C733.624 597.075 733.313 599.931 734.485 601.56C736.204 602.405 738.654 601.722 740.468 601.331C739.024 602.442 736.026 604.168 735.515 605.858C736.053 606.022 736.611 606.233 737.164 606.331C732.905 612.972 725.203 618.287 719.731 624.061L714.577 618.325C715.477 618.034 716.268 617.671 717.11 617.241C720.297 612.611 714.169 611.537 714.074 607.756C713.978 603.918 718.035 602.907 717.569 597.498C717.422 595.111 717.832 592.616 718.063 590.237Z"/>
	<defs>
		<linearGradient id="gradient_2" gradientUnits="userSpaceOnUse" x1="744.89276" y1="581.34204" x2="756.02014" y2="602.96014">
			<stop offset="0" stop-color="#85A181"/>
			<stop offset="1" stop-color="#A2C6A2"/>
		</linearGradient>
	</defs>
	<path fill="url(#gradient_2)" d="M745.165 579.063C752.717 579.022 760.188 577.973 767.717 577.823C764.813 585.313 759.211 599.184 754.899 605.512C750.122 604.632 741.683 604.48 737.164 606.331C736.611 606.233 736.053 606.022 735.515 605.858C736.026 604.168 739.024 602.442 740.468 601.331C743.783 597.72 746.549 592.519 747.361 587.624C747.754 585.255 747.827 583.295 746.399 581.279C745.959 580.66 745.592 580.22 745.305 579.502C745.248 579.36 745.212 579.209 745.165 579.063Z"/>
	<path fill="#95B48E" d="M254.523 577.667C259.141 577.659 263.786 577.911 268.403 578.048L276.68 577.966L278.018 578.813C278.665 583.005 278.479 588.674 280.149 592.44C282.314 594.849 284.565 597.886 285.317 601.079C284.991 602.304 285.097 602.347 284.038 603.01L282.024 602.969C279.91 601.801 277.983 601.517 275.621 601.245C271.885 601.585 269.442 602.103 266.25 604.123C260.963 595.855 258.91 586.345 254.523 577.667Z"/>
	<path fill="#7DA47B" d="M268.403 578.048L276.68 577.966L278.018 578.813C278.665 583.005 278.479 588.674 280.149 592.44C282.314 594.849 284.565 597.886 285.317 601.079C284.991 602.304 285.097 602.347 284.038 603.01L282.024 602.969C279.91 601.801 277.983 601.517 275.621 601.245C276.203 600.9 275.937 600.966 276.642 600.936C278.017 600.877 279.228 600.823 280.582 600.554C281.319 598.332 279.785 594.945 279.022 592.72C278.161 591.392 277.376 590.369 276.196 589.308C275.3 589.467 275.624 589.335 274.842 589.762C274.662 589.86 274.486 589.967 274.309 590.07L272.811 589.508C272.164 587.602 276.1 583.29 275.926 580.333C274.553 578.593 271.44 579.017 269.284 578.34C268.989 578.247 268.697 578.145 268.403 578.048Z"/>
	<path fill="#44695A" d="M700.312 578.473C705.943 577.555 711.809 577.769 717.491 577.965C717.82 582.063 718.003 586.126 718.063 590.237C717.832 592.616 717.422 595.111 717.569 597.498C718.035 602.907 713.978 603.918 714.074 607.756C714.169 611.537 720.297 612.611 717.11 617.241C716.268 617.671 715.477 618.034 714.577 618.325C712.51 616.506 710.604 614.554 708.681 612.586C710.16 612.926 711.289 613.6 712.585 614.348L713.194 614.153C712.936 612.043 712.615 609.87 711.524 608.003C710.37 606.03 708.405 604.974 706.258 604.434C704.837 604.076 703.668 603.677 702.351 603.033C702.201 602.96 702.053 602.883 701.904 602.809C697.807 600.711 696.391 598.138 694.636 594.091C692.717 588.68 692.268 584.222 692.513 578.506C695.105 578.513 697.724 578.603 700.312 578.473Z"/>
	<path fill="#35534D" d="M694.636 594.091L695.256 592.783L695.098 592.894L696.551 592.624L695.963 592.271C698.261 596.001 700.971 598.695 704.697 601.017L701.904 602.809C697.807 600.711 696.391 598.138 694.636 594.091Z"/>
	<path fill="#C0CDB5" d="M700.312 578.473C705.943 577.555 711.809 577.769 717.491 577.965C717.82 582.063 718.003 586.126 718.063 590.237C717.832 592.616 717.422 595.111 717.569 597.498C717.185 598.354 716.742 599.181 716.314 600.016C715.666 600.334 715.198 600.734 714.445 600.635C712.475 600.377 710.925 598.598 709.722 597.159L709.416 596.408C705.84 593.928 703.134 590.553 700.245 587.335C700.37 584.371 700.372 581.439 700.312 578.473Z"/>
	<defs>
		<linearGradient id="gradient_3" gradientUnits="userSpaceOnUse" x1="506.23529" y1="746.88098" x2="574.92255" y2="772.98901">
			<stop offset="0" stop-color="#6B8E6B"/>
			<stop offset="1" stop-color="#7FAB7D"/>
		</linearGradient>
	</defs>
	<path fill="url(#gradient_3)" d="M504.728 744.875C507.168 746.998 509.801 747.841 513.039 747.573C514.833 747.425 515.908 747.159 517.27 745.931C519.442 747.062 518.904 747.863 520.368 749.102C522.186 750.641 526.646 750.853 529.066 752.053C529.427 752.232 530.058 752.401 530.48 752.37C536.008 756.119 541.94 758.907 548.771 757.564C556.18 756.107 572.498 749.943 579.3 754.963C580.472 755.828 581.403 756.889 581.541 758.328C572.349 760.685 563.008 763.529 553.683 765.246C537.474 768.229 520.284 767.932 503.9 767.098C503.843 759.52 505.869 752.475 504.728 744.875Z"/>
	<path fill="#7DA47B" d="M422.878 751.7C422.989 750.806 422.878 751.136 423.317 750.243C424.458 747.925 426.809 744.69 429.1 743.407C432.086 741.735 458.797 738.502 464.159 737.806C467.51 737.372 471.612 737.249 474.759 736.022C480.448 733.805 484.044 727.372 489.376 725.577C491.205 726.416 500.302 732.53 501.268 733.825C501.626 734.305 501.728 734.93 501.958 735.483L502.616 735.443C503.13 738.608 503.806 741.803 504.728 744.875C505.869 752.475 503.843 759.52 503.9 767.098C479.316 766.515 445.226 762.143 422.878 751.7Z"/>
	<path fill="#CFAD78" d="M609.314 445.97Q619.218 445.871 629.122 445.916Q658.018 489.019 684.133 533.861C689.707 543.469 696.244 552.43 700.67 562.669C689.852 561.147 678.916 560.968 668.025 561.539C662.242 550.058 656.57 538.488 650.539 527.138C636.284 500.309 621.432 473.877 609.314 445.97Z"/>
	<path fill="#CFAD78" d="M408.342 445.228L410.501 445.123L411.234 445.815C411.385 453.399 374.454 518.531 368.561 530.025Q360.5 546.052 353.352 562.506C343.897 561.628 334.175 562.105 324.695 562.291L319.956 562.074Q339.402 527.565 360.417 493.988C369.771 479.015 382.035 461.307 389.522 445.608Q398.935 445.576 408.342 445.228Z"/>
	<defs>
		<linearGradient id="gradient_4" gradientUnits="userSpaceOnUse" x1="402.11853" y1="592.94135" x2="410.33585" y2="645.42981">
			<stop offset="0" stop-color="#00121D"/>
			<stop offset="1" stop-color="#0E2B2D"/>
		</linearGradient>
	</defs>
	<path fill="url(#gradient_4)" d="M420.372 589.572C421.2 592.675 420.119 595.437 420.233 598.563C427.046 597.157 436.353 594.787 442.565 599.047C445.151 600.821 446.756 603.601 447.294 606.667C448.647 614.378 443.957 623.363 439.494 629.39C436.736 633.115 433.458 636.489 430.27 639.846C426.577 638.202 419.418 640.445 415.613 641.487C414.742 641.903 413.5 642.734 412.55 642.723C408.461 643.24 405.467 648.096 401.722 647.772L400.159 648.193L397.54 646.726C391.698 645.494 385.535 642.353 379.963 640.098C374.972 639.973 369.666 639.911 364.808 641.229C365.156 637.851 367.282 631.888 369.678 629.521C366.215 622.894 361.679 616.193 362.317 608.393C362.596 604.983 364.006 601.677 366.73 599.516C371.404 595.808 379.461 596.267 385.091 596.977C390.915 597.711 395.486 599.407 399.163 604.113C400.187 603.667 400.906 603.582 401.505 602.586C402.515 600.907 402.058 599.018 401.532 597.263C403.895 597.208 407.11 596.723 409.353 597.406C411.247 596.443 413.068 595.207 414.891 594.108Q417.686 591.906 420.372 589.572Z"/>
	<path fill="#7DA47B" d="M393.556 641.73C397.727 642.806 399.125 644.45 401.722 647.772L400.159 648.193L397.54 646.726C395.965 645.348 393.897 643.896 393.556 641.73Z"/>
	<path fill="#152F2F" d="M401.081 607.838C404.38 608.089 407.344 606.704 410.226 605.252C409.164 607.969 408.635 609.285 405.921 610.505C405.024 610.908 404.1 611.277 403.184 611.634C402.471 610.401 401.636 609.144 401.081 607.838Z"/>
	<path fill="#173F40" d="M400.702 606.898L401.777 605.417C402.422 604.511 402.976 603.596 403.983 603.035C405.904 601.964 408.466 602.903 410.43 603.388L411.009 603.58L410.226 605.252C407.344 606.704 404.38 608.089 401.081 607.838L400.702 606.898Z"/>
	<path fill="#173F40" d="M380.218 639.389C384.369 639.796 389.26 639.792 393.187 641.199L393.556 641.73C393.897 643.896 395.965 645.348 397.54 646.726C391.698 645.494 385.535 642.353 379.963 640.098L380.218 639.389Z"/>
	<path fill="#35534D" d="M401.532 597.263C403.895 597.208 407.11 596.723 409.353 597.406C409.6 599.447 409.931 601.393 410.43 603.388C408.466 602.903 405.904 601.964 403.983 603.035C402.976 603.596 402.422 604.511 401.777 605.417L400.702 606.898L399.163 604.113C400.187 603.667 400.906 603.582 401.505 602.586C402.515 600.907 402.058 599.018 401.532 597.263Z"/>
	<path fill="#C0CDB5" d="M420.372 589.572C421.2 592.675 420.119 595.437 420.233 598.563C418.458 599.106 416.686 599.611 414.986 600.362C413.651 601.395 412.206 602.394 411.009 603.58L410.43 603.388C409.931 601.393 409.6 599.447 409.353 597.406C411.247 596.443 413.068 595.207 414.891 594.108Q417.686 591.906 420.372 589.572Z"/>
	<path fill="#E9E6D2" d="M409.353 597.406C411.247 596.443 413.068 595.207 414.891 594.108C416.148 596.292 415.783 597.443 415.143 599.801L414.986 600.362C413.651 601.395 412.206 602.394 411.009 603.58L410.43 603.388C409.931 601.393 409.6 599.447 409.353 597.406Z"/>
	<path fill="#C0CDB5" d="M369.678 629.521C372.596 633.859 375.288 637.193 380.218 639.389L379.963 640.098C374.972 639.973 369.666 639.911 364.808 641.229C365.156 637.851 367.282 631.888 369.678 629.521Z"/>
	<path fill="#E9E6D2" d="M376.067 608.675C381.244 608.628 386.051 609.62 390.002 613.211C394.239 617.061 395.186 621.829 395.37 627.271C392.389 626.997 389.244 626.292 386.677 624.701C381.381 621.42 377.443 614.686 376.067 608.675Z"/>
	<path fill="#E9E6D2" d="M429.691 609.133C430.06 609.113 430.646 609.068 430.999 609.11C432.233 609.256 432.299 609.587 432.932 610.558C432.919 612.368 432.34 613.793 431.469 615.374C427.928 621.802 422.896 624.903 416.117 627.005C415.096 627.351 414.509 627.603 413.444 627.322L412.824 626.098C412.738 622.587 414.509 619.368 416.597 616.646C420.141 612.025 424.011 609.874 429.691 609.133Z"/>
	<path fill="#CFAD78" d="M673.161 445.246C673.945 444.987 673.476 445.063 674.585 445.22C682.973 457.942 691.97 470.197 700.75 482.652L738.037 536.11C744.429 545.327 751.031 554.46 757.082 563.904C749.956 562.599 743.026 562.137 735.806 562.013L720.512 562.008C706.082 539.94 693.367 516.917 679.594 494.451Q673.095 483.781 666.418 473.221C660.487 464.01 654.48 455.222 649.646 445.346C657.602 446.014 665.224 446.016 673.161 445.246Z"/>
	<path fill="#CFAD78" d="M344.842 445.244C352.814 446.242 361.419 445.546 369.431 445.356C366.473 456.666 341.06 494.514 333.289 507.819Q323.257 525.258 313.413 542.803C309.603 549.451 305.807 556.451 301.36 562.684Q294.619 562.453 287.875 562.486C279.824 562.394 271.781 562.73 263.737 563.011C269.08 552.864 277.212 543.919 283.718 534.47L311.329 494.328C322.688 478.134 334.381 462.039 344.842 445.244Z"/>
	<path fill="#CFAD78" d="M321.003 445.238L322.023 445.22L322.413 446.119C319.826 456.064 300.285 481.532 293.52 491.19L268.957 526.467C262.929 535.157 257.488 544.79 250.58 552.831C249.829 553.706 249.643 554.288 248.474 554.384L248.154 553.001Q246.295 543.006 245.11 532.908Q243.925 522.811 243.419 512.656Q242.913 502.502 243.089 492.337Q243.265 482.172 244.121 472.041C244.846 463.307 246.428 454.675 247.214 445.944C271.734 446.28 296.512 446.421 321.003 445.238Z"/>
	<path fill="#CFAD78" d="M695.598 446.008C721.827 445.606 748.059 446.379 774.294 445.729C780.116 477.853 780.469 518.178 773.21 550.049L771.839 555.864C761.424 544.318 753.541 529.894 744.624 517.17L714.216 473.541C707.878 464.395 701.218 455.645 695.598 446.008Z"/>
	<path fill="#CFAD78" d="M555.121 445.545C566.714 445.735 578.242 445.815 589.836 445.447C594.045 456.179 599.905 466.502 605.241 476.723C617.064 499.367 629.697 521.523 640.732 544.57C643.772 550.919 647.308 556.967 649.801 563.57C645.443 563.257 641.198 563.394 636.843 563.602C636.313 560.599 635.607 557.791 634.676 554.888C632.252 549.005 626.833 542.99 620.99 540.488C616.933 538.751 612.725 538.33 608.616 540.155C599.76 544.091 595.957 553.503 592.913 561.974L576.833 561.953C575.477 556.686 574.924 551.15 573.883 545.805C572.705 539.758 571.127 533.794 569.953 527.748C568.737 521.485 567.851 515.156 566.722 508.877C565.468 501.898 563.649 495.032 562.333 488.064C559.673 473.978 557.491 459.69 555.121 445.545Z"/>
	<path fill="#503F36" d="M597.704 498.472C598.471 500.21 599.299 501.979 598.511 503.889C598.071 504.957 597.112 505.729 596.004 506.018C593.977 506.548 591.9 505.744 590.288 504.55C590.119 504.425 589.96 504.287 589.796 504.156C591.927 503.992 594.198 504.403 596.205 503.549C597.402 502.231 597.448 500.183 597.704 498.472Z"/>
	<path fill="#3D3C35" d="M589.796 504.156C589.522 503.49 589.487 503.464 589.313 502.875C588.849 501.306 588.742 500.095 589.719 498.653C590.459 497.562 591.511 496.912 592.821 496.749C594.857 496.494 596.168 497.265 597.704 498.472C597.448 500.183 597.402 502.231 596.205 503.549C594.198 504.403 591.927 503.992 589.796 504.156Z"/>
	<path fill="#CFAD78" d="M431.42 444.517C442.888 446.668 455.663 445.464 467.307 445.205C466.822 460.688 461.539 477.587 458.457 492.867C456.103 504.535 453.512 516.165 451.25 527.848C448.931 539.826 447.163 552.204 443.054 563.725C438.688 563.457 434.344 563.447 429.972 563.448C429.321 558.942 428.205 555.001 425.709 551.133C421.316 544.326 415.428 540.603 407.559 538.929C406.651 538.935 405.776 538.953 404.88 539.12C392.347 541.461 389.968 553.803 383.827 562.596C383.732 562.732 383.632 562.866 383.534 563.001C379.248 563.012 375.014 562.973 370.736 562.638C374.394 551.257 380.992 541.179 386.48 530.641C396.618 511.175 407.858 492.345 417.983 472.89C422.81 463.616 427.119 454.043 431.42 444.517Z"/>
	<path fill="#05151A" d="M428.876 495.575C430.082 495.469 431.32 495.321 432.531 495.368C434.355 495.439 436.32 496.788 437.438 498.177C438.676 499.715 439.14 501.498 438.834 503.45C438.393 506.261 436.644 507.799 434.427 509.356C433.244 509.527 431.926 509.692 430.734 509.587C428.675 509.405 426.692 508.337 425.448 506.69C424.334 505.215 423.867 503.368 424.27 501.549C424.911 498.659 426.431 497.079 428.876 495.575Z"/>
	<path fill="#CFAD78" d="M519.042 445.448C524.885 446.358 530.802 446.004 536.655 445.407C538.738 456.071 541.335 466.636 543.301 477.32C547.156 498.265 550.491 519.747 555.929 540.34C557.836 547.693 559.603 555.124 560.802 562.628C553.562 562.483 542.73 561.19 536.005 563.211C534.221 555.676 530.879 548.997 524.892 543.914C520.729 540.379 514.858 537.53 509.275 538.092C502.173 538.808 495.392 546.045 491.956 551.978C490.254 554.918 489.14 558.29 486.999 560.939C482.627 562.885 466.558 561.091 460.341 561.372L475.913 491.199C479.157 475.927 481.898 460.606 485.504 445.4C491.332 446.164 497.501 445.792 503.387 445.807C503.841 461.862 503.583 478.062 503.333 494.125C503.242 499.98 502.572 505.963 502.808 511.801C502.89 513.822 503.109 515.894 504.03 517.728C504.924 519.508 506.388 520.67 508.307 521.19C510.508 521.786 513.574 521.728 515.473 520.298C517.489 518.78 517.974 515.997 518.324 513.644C519.209 507.709 518.72 501.246 518.701 495.249C518.649 478.869 517.518 461.739 519.042 445.448Z"/>
	<defs>
		<linearGradient id="gradient_5" gradientUnits="userSpaceOnUse" x1="695.77863" y1="690.97937" x2="606.24524" y2="613.57294">
			<stop offset="0" stop-color="#84A67A"/>
			<stop offset="1" stop-color="#A9CBA2"/>
		</linearGradient>
	</defs>
	<path fill="url(#gradient_5)" d="M636.976 576.885C647.401 577.642 657.989 578.362 668.443 578.452C676.278 578.52 684.115 578.081 691.949 578.254L692.513 578.506C692.268 584.222 692.717 588.68 694.636 594.091C696.391 598.138 697.807 600.711 701.904 602.809C702.053 602.883 702.201 602.96 702.351 603.033C703.668 603.677 704.837 604.076 706.258 604.434C708.405 604.974 710.37 606.03 711.524 608.003C712.615 609.87 712.936 612.043 713.194 614.153L712.585 614.348C711.289 613.6 710.16 612.926 708.681 612.586L703.148 608.143C699.745 608.074 696.496 607.073 693.026 607.083C688.897 607.095 684.622 608.125 681.723 611.25C678.832 614.367 678.184 618.496 678.357 622.599C678.903 635.506 685.902 645.926 694.62 654.911C697.615 657.996 701.4 661.558 705.349 663.38C708.795 664.971 714.499 664.138 717.339 666.703C717.316 666.853 717.309 667.006 717.271 667.153C716.411 670.456 711.882 674.162 709.586 676.849C686.489 703.892 656.556 723.972 625.428 740.67C624.725 723.849 625.708 706.763 625.523 689.903C634.386 689.567 641.237 686.951 647.677 680.759C654.692 674.014 661.209 662.319 661.221 652.385C661.226 648.963 660.276 645.776 657.695 643.41C652.979 639.088 643.186 640.161 637.226 640.529C647.144 634.671 653.679 627.536 657.076 616.299C658.51 611.555 659.172 605.908 656.616 601.421C654.874 598.364 651.891 596.62 648.52 595.877C638.938 593.762 629.764 597.603 621.94 602.816L621.502 603.276C620.022 602.051 619.442 600.713 618.633 598.998L626.346 592.039C630.584 587.338 633.813 582.331 636.976 576.885Z"/>
	<path fill="#E9E6D2" d="M626.346 592.039C626.947 593.718 627.156 594.684 626.3 596.324C625.081 598.663 623.063 600.435 621.94 602.816L621.502 603.276C620.022 602.051 619.442 600.713 618.633 598.998L626.346 592.039Z"/>
	<path fill="#7DA47B" d="M691.949 578.254L692.513 578.506C692.268 584.222 692.717 588.68 694.636 594.091C696.391 598.138 697.807 600.711 701.904 602.809C702.053 602.883 702.201 602.96 702.351 603.033C703.668 603.677 704.837 604.076 706.258 604.434C708.405 604.974 710.37 606.03 711.524 608.003C712.615 609.87 712.936 612.043 713.194 614.153L712.585 614.348C711.289 613.6 710.16 612.926 708.681 612.586L703.148 608.143C705.367 608.156 706.948 608.995 708.769 610.188C709.565 610.709 709.97 611.149 710.925 611.218L709.191 607.81C704.288 605.013 697.683 603.855 693.787 599.703C689.602 595.242 691.713 583.957 691.949 578.254Z"/>
	<defs>
		<linearGradient id="gradient_6" gradientUnits="userSpaceOnUse" x1="329.51266" y1="693.29773" x2="411.362" y2="606.81598">
			<stop offset="0" stop-color="#89AC7E"/>
			<stop offset="1" stop-color="#AFC9A5"/>
		</linearGradient>
	</defs>
	<path fill="url(#gradient_6)" d="M317.921 578.032C326.092 578.002 339.839 576.994 347.621 578.447C359.605 578.491 371.824 579.426 383.757 578.753C388.958 587.988 392.627 591.657 401.532 597.263C402.058 599.018 402.515 600.907 401.505 602.586C400.906 603.582 400.187 603.667 399.163 604.113C395.486 599.407 390.915 597.711 385.091 596.977C379.461 596.267 371.404 595.808 366.73 599.516C364.006 601.677 362.596 604.983 362.317 608.393C361.679 616.193 366.215 622.894 369.678 629.521C367.282 631.888 365.156 637.851 364.808 641.229C364.566 641.43 364.321 641.629 364.082 641.833C361.145 644.344 360.094 647.435 359.909 651.252C359.467 660.397 364.62 669.749 370.51 676.388C378.062 684.901 385.526 688.385 396.864 689.065C396.938 694.646 396.505 700.283 396.453 705.875Q396.342 723.095 396.68 740.312C368.032 725.981 334.185 702.271 313.006 678.272C309.861 674.709 303.72 667.385 304.022 662.514C306.015 659.951 309.748 661.135 312.613 660.546C322.246 658.566 331.55 648.522 336.314 640.466C340.255 633.803 343.687 621.865 341.463 614.199C340.71 611.604 339.116 609.532 336.655 608.364C332.204 606.25 324.186 607.202 319.615 608.741L316.395 609.205C315.118 609.826 313.847 610.389 312.531 610.924L311.634 610.407L311.398 609.527C312.767 604.013 320.617 600.99 323.442 595.812C324.609 593.673 324.328 591.221 323.678 588.956L322.677 588.55C322.312 586.088 323.364 581.858 321.955 579.814C320.936 578.333 319.538 578.382 317.921 578.032Z"/>
	<path fill="#7DA47B" d="M317.921 578.032C326.092 578.002 339.839 576.994 347.621 578.447L346.983 578.496C340.513 578.942 333.301 577.129 327.636 580.978C325.745 585.675 330.428 595.313 327.998 599.4C326.098 602.594 314.806 604.701 316.395 609.205C315.118 609.826 313.847 610.389 312.531 610.924L311.634 610.407L311.398 609.527C312.767 604.013 320.617 600.99 323.442 595.812C324.609 593.673 324.328 591.221 323.678 588.956L322.677 588.55C322.312 586.088 323.364 581.858 321.955 579.814C320.936 578.333 319.538 578.382 317.921 578.032Z"/>
	<defs>
		<linearGradient id="gradient_7" gradientUnits="userSpaceOnUse" x1="465.94333" y1="742.85352" x2="438.67239" y2="577.07336">
			<stop offset="0" stop-color="#88AB7E"/>
			<stop offset="1" stop-color="#B7D3A7"/>
		</linearGradient>
	</defs>
	<path fill="url(#gradient_7)" d="M429.352 577.504C442.698 577.645 455.665 578.946 469.048 578.148C472.912 577.917 483.793 576.313 487.13 577.569C487.884 584.026 493.857 588.801 494.685 595.676L494.345 596.03L492.23 595.442C491.594 596.015 491.711 595.694 491.633 596.276C485.697 595.965 478.01 595.241 473.162 599.417C470.762 601.484 469.817 604.501 469.652 607.584C469.282 614.483 472.218 620.575 475.304 626.521C473.649 628.914 473.078 636.603 472.373 639.85C472.209 640.606 472.265 640.354 472.302 641.281C468.683 646.433 467.744 652.032 468.826 658.225C470.577 668.251 477.177 679.021 485.664 684.724C491.576 688.697 497.2 688.593 504.03 688.577C503.586 704.207 502.639 719.801 502.616 735.443L501.958 735.483C501.728 734.93 501.626 734.305 501.268 733.825C500.302 732.53 491.205 726.416 489.376 725.577C484.044 727.372 480.448 733.805 474.759 736.022C471.612 737.249 467.51 737.372 464.159 737.806C458.797 738.502 432.086 741.735 429.1 743.407C426.809 744.69 424.458 747.925 423.317 750.243C422.878 751.136 422.989 750.806 422.878 751.7C419.413 750.655 416.184 749.03 412.916 747.496C412.195 728.235 412.22 708.903 411.875 689.628C420.248 689.136 426.153 688.282 432.681 682.533C440.541 675.612 448.777 662.379 449.256 651.717C449.375 649.048 448.704 646.384 446.821 644.412C444.12 641.582 439.926 641.046 436.229 640.937C434.311 640.699 432.428 640.81 430.516 640.407L430.27 639.846C433.458 636.489 436.736 633.115 439.494 629.39C443.957 623.363 448.647 614.378 447.294 606.667C446.756 603.601 445.151 600.821 442.565 599.047C436.353 594.787 427.046 597.157 420.233 598.563C420.119 595.437 421.2 592.675 420.372 589.572C424.057 585.86 426.751 582.042 429.352 577.504Z"/>
	<path fill="#7DA47B" d="M443.791 726.815C443.163 726.74 443.519 726.851 442.821 726.259C442.764 724.601 442.778 722.968 442.834 721.31C441.938 721.591 441.798 721.58 440.923 721.42C440.462 720.349 440.575 719.564 440.901 718.478C441.457 716.627 443.08 713.449 444.952 712.623C449.147 710.771 454.604 707.707 459.182 707.599C461.171 707.551 462.684 708.031 464.142 709.402C465.072 711.346 464.167 712.283 464.319 714.154C464.435 715.585 466.451 715.307 467.545 716.429C461.898 715.981 450.625 713.991 446.201 718.02C444.722 719.367 443.631 721.441 443.628 723.462C443.627 724.141 443.711 724.809 443.747 725.485C443.771 725.928 443.777 726.371 443.791 726.815Z"/>
	<path fill="#05151A" d="M443.791 726.815C443.777 726.371 443.771 725.928 443.747 725.485C443.711 724.809 443.627 724.141 443.628 723.462C443.631 721.441 444.722 719.367 446.201 718.02C450.625 713.991 461.898 715.981 467.545 716.429C468.805 719.888 469.677 724.812 468.005 728.306C467.695 728.953 467.249 729.397 466.726 729.871C462.749 730.928 449.501 731.911 445.943 730.286C445.061 729.883 444.15 727.708 443.791 726.815Z"/>
	<path fill="#E9E6D2" d="M500.856 321.688C514.954 319.996 530.537 322.199 543.347 328.388C560.954 336.894 575.758 352.27 582.151 370.928C588.948 390.765 586.942 410.995 577.778 429.585C559.258 429.126 540.665 429.435 522.134 429.274Q496.769 429.546 471.404 429.307C462.568 429.238 453.433 428.565 444.633 429.352C440.499 422.274 438.648 414.58 437.504 406.527C434.864 387.951 437.461 367.319 449.109 352.05C460.894 336.602 481.574 324.208 500.856 321.688Z"/>
	<path fill="#05151A" d="M458.994 386.081C461.161 386.029 463.686 386.132 465.559 387.365C467.663 388.749 468.987 391.158 469.399 393.599C469.795 395.952 469.293 398.295 467.85 400.214C466.456 402.067 465.023 402.415 462.852 402.704C461.968 402.552 461.083 402.393 460.215 402.17C457.198 401.394 454.687 399.752 453.199 396.945C452.332 395.309 452.055 393.328 452.691 391.564C453.767 388.578 456.24 387.243 458.994 386.081Z"/>
	<path fill="#05151A" d="M464.587 361.934C469.396 362.909 472.142 365.454 475.142 369.114C474.588 371.143 473.95 373.192 472.916 375.037C471.433 377.682 469.452 378.721 466.606 379.452C462.02 378.916 459.218 377.629 455.611 374.899C455.947 373.697 456.278 372.474 456.704 371.299C458.311 366.868 460.318 364.027 464.587 361.934Z"/>
	<path fill="#05151A" d="M483.133 342.528C484.483 342.354 485.746 342.21 487.058 342.675C489.819 343.653 491.982 346.055 493.037 348.739C494.163 351.602 494.265 354.93 492.996 357.764C491.778 360.481 490.324 361.197 487.617 362.236C486.318 362.259 485.004 362.279 483.717 362.073C481.241 361.677 478.923 359.964 477.589 357.86C476.18 355.637 475.82 352.915 476.444 350.38C477.383 346.561 479.931 344.525 483.133 342.528Z"/>
	<defs>
		<linearGradient id="gradient_8" gradientUnits="userSpaceOnUse" x1="583.2674" y1="756.71057" x2="542.00043" y2="576.01544">
			<stop offset="0" stop-color="#80A679"/>
			<stop offset="1" stop-color="#B6D4AA"/>
		</linearGradient>
	</defs>
	<path fill="url(#gradient_8)" d="M534.539 576.915C541.187 576.992 547.759 577.848 554.389 578.209C560.911 578.564 567.48 578.368 574.01 578.392C580.28 578.416 586.042 578.595 592.205 577.178C595.822 582.423 599.529 587.694 604.074 592.177C604.097 592.199 604.11 592.23 604.128 592.256C607.845 594.592 611.557 597.213 615.453 599.227L612.832 602.701L611.92 604.792C607.972 599.891 601.903 597.586 595.785 596.895C590.376 596.285 582.698 596.223 578.331 599.861C575.569 602.162 574.333 605.575 574.202 609.096C573.85 618.551 581.329 628.778 587.614 635.333C589.065 636.847 590.655 638.2 592.267 639.537C587.659 640.047 578.952 638.757 575.772 642.478C572.995 645.727 572.936 650.969 573.445 654.966C574.759 665.286 581.955 678.252 590.208 684.614C595.936 689.029 602.456 689.877 609.428 689.487C609.341 708.558 608.557 728.222 610.631 747.177C601.126 751.701 591.687 755.484 581.541 758.328C581.403 756.889 580.472 755.828 579.3 754.963C572.498 749.943 556.18 756.107 548.771 757.564C541.94 758.907 536.008 756.119 530.48 752.37C530.058 752.401 529.427 752.232 529.066 752.053C526.646 750.853 522.186 750.641 520.368 749.102C518.904 747.863 519.442 747.062 517.27 745.931C515.908 747.159 514.833 747.425 513.039 747.573C509.801 747.841 507.168 746.998 504.728 744.875C503.806 741.803 503.13 738.608 502.616 735.443C502.639 719.801 503.586 704.207 504.03 688.577C497.2 688.593 491.576 688.697 485.664 684.724C477.177 679.021 470.577 668.251 468.826 658.225C467.744 652.032 468.683 646.433 472.302 641.281C472.265 640.354 472.209 640.606 472.373 639.85C473.078 636.603 473.649 628.914 475.304 626.521C472.218 620.575 469.282 614.483 469.652 607.584C469.817 604.501 470.762 601.484 473.162 599.417C478.01 595.241 485.697 595.965 491.633 596.276C496.796 596.945 500.716 598.661 505.433 600.689C504.923 599.882 504.474 599.266 504.277 598.317C504.108 597.504 504.605 597.259 505.074 596.642C506.599 597.45 508.351 598.642 510.068 598.894C510.436 598.301 510.237 598.501 510.814 598.075C511.499 597.568 512.078 597.903 512.886 598.02C513.903 599.466 514.321 600.492 515.961 601.211Q517.362 600.985 518.759 600.732L519.078 600.344C520.22 598.76 521.405 597.179 522.459 595.534C523.49 593.925 523.804 593.017 523.387 591.158C527.974 586.835 531.407 582.362 534.539 576.915Z"/>
	<path fill="#E9E6D2" d="M604.128 592.256C607.845 594.592 611.557 597.213 615.453 599.227L612.832 602.701C610.001 601.169 606.884 598.913 604.599 596.652C605.474 596.293 608.532 597.846 609.665 598.179C608.726 596.977 607.659 595.318 606.347 594.552C605.5 594.057 604.721 593.62 603.895 593.069L604.128 592.256Z"/>
	<path fill="#05151A" d="M554.443 715.129C559.276 714.935 566.642 713.842 570.951 716.205C572.374 716.985 573.42 718.263 573.811 719.847C574.392 722.207 573.535 725.068 572.195 727.031C570.78 729.102 568.973 729.346 566.664 729.841C562.415 730.296 553.899 731.857 550.23 729.83C549.292 729.312 548.657 728.353 548.359 727.346C547.531 724.545 548.523 720.942 549.914 718.481C551.076 716.424 552.201 715.744 554.443 715.129Z"/>
	<path fill="#0A2225" d="M475.304 626.521C472.218 620.575 469.282 614.483 469.652 607.584C469.817 604.501 470.762 601.484 473.162 599.417C478.01 595.241 485.697 595.965 491.633 596.276C496.796 596.945 500.716 598.661 505.433 600.689C504.923 599.882 504.474 599.266 504.277 598.317C504.108 597.504 504.605 597.259 505.074 596.642C506.599 597.45 508.351 598.642 510.068 598.894C510.436 598.301 510.237 598.501 510.814 598.075C511.499 597.568 512.078 597.903 512.886 598.02C513.903 599.466 514.321 600.492 515.961 601.211Q517.362 600.985 518.759 600.732L519.078 600.344C526.237 597.547 538.09 594.429 545.486 597.636C548.578 598.977 550.793 601.499 551.867 604.677C553.937 610.803 551.436 618.119 548.56 623.624C545.142 630.165 539.871 635.579 534.044 640.029C540.127 640.048 547.891 639.903 552.525 644.531C554.45 646.453 555.168 648.922 555.143 651.599C555.046 661.932 547.848 673.8 540.524 680.703C534.126 686.732 527.842 689.12 519.079 689.069C518.992 702.354 521.034 735.075 517.27 745.931C515.908 747.159 514.833 747.425 513.039 747.573C509.801 747.841 507.168 746.998 504.728 744.875C503.806 741.803 503.13 738.608 502.616 735.443C502.639 719.801 503.586 704.207 504.03 688.577C497.2 688.593 491.576 688.697 485.664 684.724C477.177 679.021 470.577 668.251 468.826 658.225C467.744 652.032 468.683 646.433 472.302 641.281C472.265 640.354 472.209 640.606 472.373 639.85C473.078 636.603 473.649 628.914 475.304 626.521Z"/>
	<path fill="#173F40" d="M505.074 596.642C506.599 597.45 508.351 598.642 510.068 598.894C510.436 598.301 510.237 598.501 510.814 598.075C511.499 597.568 512.078 597.903 512.886 598.02C513.903 599.466 514.321 600.492 515.961 601.211Q517.362 600.985 518.759 600.732L517.727 603.751C516.871 605.053 515.833 607.051 514.601 608.018C513.534 608.855 512.704 608.823 511.418 608.756C508.441 607.162 507.186 603.802 505.744 600.912L505.433 600.689C504.923 599.882 504.474 599.266 504.277 598.317C504.108 597.504 504.605 597.259 505.074 596.642Z"/>
	<path fill="#E9E6D2" d="M505.074 596.642C506.599 597.45 508.351 598.642 510.068 598.894C509.614 600.539 509.177 601.121 507.97 602.329L505.744 600.912L505.433 600.689C504.923 599.882 504.474 599.266 504.277 598.317C504.108 597.504 504.605 597.259 505.074 596.642Z"/>
	<path fill="#C0CDB5" d="M475.304 626.521C486.931 642.6 499.411 638.495 503.267 642.326C503.818 642.874 504.125 644.092 504.018 644.825C502.972 644.703 503.043 644.622 502.249 644.029C496.982 640.098 483.263 638.647 476.737 639.787C475.093 640.074 473.761 640.479 472.302 641.281C472.265 640.354 472.209 640.606 472.373 639.85C473.078 636.603 473.649 628.914 475.304 626.521Z"/>
	<path fill="#E9E6D2" d="M483.888 608.524C488.443 608.308 492.171 608.714 495.874 611.613C499.627 614.55 502.766 620.09 503.298 624.87C498.512 624.576 494.042 624.29 490.038 621.291C485.869 618.168 484.47 613.494 483.888 608.524Z"/>
	<path fill="#E9E6D2" d="M531.756 609.097C532.91 609.014 534.418 608.775 535.551 608.928C536.919 609.113 537.245 609.701 538.064 610.679C538.483 612.469 538.24 613.619 537.443 615.223C534.806 620.526 530.256 624.01 524.782 625.944C523.458 626.296 522.201 626.52 520.843 626.703C519.746 626.19 519.211 626.015 518.875 624.708C518.331 622.599 519.957 619.609 520.993 617.895C523.555 613.66 526.907 610.315 531.756 609.097Z"/>
	<path fill="#E9E6D2" d="M482.949 651.356C486.879 651.903 490.826 652.469 494.32 654.494C500.466 658.054 502.182 664.878 503.851 671.26C499.512 671.17 495.35 671.251 491.546 668.801C485.755 665.07 484.132 657.658 482.949 651.356Z"/>
	<path fill="#E9E6D2" d="M536.784 652.214C537.437 652.14 537.848 652.272 538.479 652.429C538.736 652.796 538.916 652.995 539.031 653.468C539.761 656.465 537.302 661.361 535.704 663.807C532.303 669.012 527.953 671.178 522.111 672.518C520.899 672.606 520.993 672.779 519.896 672.063C519.775 671.465 519.688 671.124 519.625 670.548C519.168 666.402 521.277 661.417 523.802 658.227C527.429 653.643 531.307 652.738 536.784 652.214Z"/>
	<path fill="#E9E6D2" d="M497.246 227.735C512.99 227.529 528.88 227.463 544.56 229.061C580.558 232.729 614.263 245.643 645.479 263.508C657.758 270.536 669.013 278.88 679.87 287.919C718.03 319.69 744.926 359.01 762.301 405.435C765.177 413.119 768.174 420.841 770.336 428.762C758.555 429.289 746.687 428.851 734.893 428.864Q704.01 429.056 673.127 428.884C647.648 428.724 622.17 429.516 596.691 429.526C597.418 422.736 599.816 416.182 600.872 409.426C604.703 384.909 599.392 363.064 584.768 343.024Q584.092 342.083 583.392 341.159Q582.692 340.234 581.97 339.328Q581.248 338.421 580.504 337.533Q579.759 336.644 578.993 335.774Q578.227 334.905 577.439 334.054Q576.652 333.204 575.843 332.373Q575.035 331.542 574.206 330.732Q573.378 329.921 572.529 329.131Q571.681 328.342 570.813 327.573Q569.945 326.805 569.059 326.058Q568.172 325.311 567.268 324.586Q566.363 323.862 565.441 323.16Q564.518 322.458 563.579 321.779Q562.639 321.1 561.683 320.444Q560.727 319.789 559.755 319.157Q558.783 318.526 557.796 317.918Q556.809 317.311 555.807 316.728Q554.805 316.146 553.789 315.588Q552.773 315.03 551.743 314.498Q550.714 313.965 549.671 313.459Q548.629 312.952 547.574 312.471Q546.519 311.99 545.453 311.536Q544.387 311.081 543.309 310.653Q542.232 310.225 541.145 309.824Q540.057 309.423 538.96 309.048Q537.863 308.674 536.757 308.327Q535.651 307.98 534.537 307.661Q533.423 307.342 532.301 307.05Q531.179 306.758 530.05 306.494Q528.922 306.23 527.787 305.995Q526.652 305.759 525.512 305.551Q524.371 305.343 523.226 305.164C514.363 304.03 505.435 304.145 496.664 305.902Q495.482 306.141 494.306 306.408Q493.13 306.676 491.961 306.972Q490.792 307.269 489.63 307.594Q488.469 307.919 487.316 308.273Q486.163 308.627 485.019 309.009Q483.875 309.391 482.741 309.802Q481.607 310.212 480.483 310.65Q479.36 311.088 478.247 311.554Q477.135 312.019 476.034 312.512Q474.933 313.005 473.845 313.525Q472.757 314.045 471.682 314.592Q470.607 315.138 469.546 315.711Q468.484 316.284 467.438 316.883Q466.391 317.482 465.359 318.107Q464.328 318.732 463.312 319.382Q462.296 320.031 461.296 320.706Q460.296 321.381 459.314 322.08Q458.331 322.779 457.366 323.502Q456.401 324.226 455.454 324.972Q454.507 325.719 453.578 326.489Q452.65 327.259 451.741 328.052Q450.832 328.844 449.943 329.659Q449.054 330.474 448.185 331.31Q447.316 332.147 446.468 333.004Q445.62 333.862 444.794 334.74Q443.967 335.619 443.162 336.517Q442.358 337.415 441.576 338.333Q440.793 339.251 440.034 340.188Q439.275 341.125 438.539 342.081Q437.803 343.036 437.091 344.009Q436.378 344.983 435.69 345.973Q435.002 346.964 434.339 347.971C421.706 366.987 418.802 390.058 422.233 412.377C423.139 418.272 424.833 424.008 425.999 429.856C410.463 427.192 391.313 429.418 375.35 429.413L251.162 429.374Q252.23 425.374 253.417 421.407Q254.604 417.441 255.908 413.511Q257.212 409.582 258.633 405.693Q260.053 401.804 261.589 397.959Q263.124 394.114 264.774 390.316Q266.423 386.519 268.184 382.772Q269.946 379.025 271.818 375.332Q273.69 371.639 275.671 368.004Q277.653 364.368 279.741 360.793Q281.83 357.218 284.023 353.707Q286.217 350.196 288.515 346.751Q290.812 343.307 293.211 339.932Q295.61 336.558 298.108 333.256Q300.606 329.954 303.201 326.728Q305.796 323.503 308.486 320.355Q311.177 317.208 313.959 314.142Q316.152 311.746 318.402 309.405Q320.653 307.063 322.959 304.777Q325.266 302.491 327.627 300.262Q329.989 298.032 332.404 295.861Q334.819 293.69 337.286 291.578Q339.753 289.466 342.271 287.415Q344.789 285.363 347.355 283.374Q349.922 281.384 352.537 279.458Q355.151 277.531 357.812 275.669Q360.472 273.806 363.177 272.009Q365.882 270.212 368.63 268.481Q371.378 266.75 374.167 265.087Q376.957 263.423 379.785 261.828Q382.614 260.233 385.481 258.707Q388.348 257.181 391.251 255.725Q394.154 254.269 397.091 252.884Q400.029 251.499 402.999 250.186Q405.969 248.873 408.971 247.633Q411.972 246.393 415.003 245.225Q418.033 244.058 421.092 242.965Q424.15 241.872 427.234 240.854Q430.317 239.835 433.425 238.892Q436.533 237.949 439.662 237.082Q442.792 236.215 445.942 235.424Q449.092 234.633 452.26 233.919Q455.428 233.205 458.612 232.568Q461.797 231.931 464.996 231.372Q468.195 230.812 471.407 230.331Q474.618 229.85 477.841 229.447Q481.063 229.043 484.295 228.719Q487.526 228.394 490.764 228.148Q494.003 227.902 497.246 227.735Z"/>
	<path fill="#0A2225" d="M312.879 390.095C314.128 390.026 315.428 389.923 316.674 390.08C319.247 390.406 321.918 391.919 323.436 394.03C325.007 396.213 325.496 399.06 324.929 401.671C324.007 405.918 321.225 407.906 317.774 410.086C316.36 410.133 315.039 410.146 313.678 409.703C310.827 408.775 308.373 406.962 307.058 404.221Q306.84 403.765 306.667 403.29Q306.495 402.815 306.371 402.326Q306.247 401.836 306.171 401.336Q306.096 400.836 306.071 400.332Q306.045 399.827 306.07 399.322Q306.094 398.818 306.169 398.318Q306.243 397.818 306.367 397.328Q306.491 396.838 306.662 396.363C307.794 393.222 309.976 391.53 312.879 390.095Z"/>
	<path fill="#05151A" d="M702.517 390.526C703.81 390.452 705.16 390.339 706.448 390.509C709 390.844 711.558 392.321 713.126 394.359Q713.428 394.757 713.685 395.184Q713.943 395.611 714.154 396.063Q714.366 396.515 714.528 396.986Q714.69 397.458 714.802 397.945Q714.913 398.431 714.973 398.926Q715.032 399.422 715.039 399.92Q715.046 400.419 714.999 400.916Q714.953 401.413 714.855 401.902C714.09 405.849 711.42 408.26 708.181 410.362C706.283 410.781 704.632 410.933 702.739 410.354C700.209 409.58 698.186 407.882 696.972 405.528Q696.714 405.021 696.509 404.49Q696.303 403.96 696.152 403.411Q696 402.862 695.905 402.301Q695.81 401.74 695.771 401.173Q695.733 400.605 695.751 400.036Q695.77 399.467 695.846 398.903Q695.922 398.339 696.054 397.786Q696.186 397.232 696.373 396.695C697.468 393.503 699.625 392.014 702.517 390.526Z"/>
	<path fill="#0A2225" d="M574.996 260.576C576.65 260.741 578.442 260.919 579.947 261.663C583.373 263.356 584.65 266.49 585.777 269.929C583.257 277.766 578.469 292.226 571.992 296.972C569.861 297.013 568.039 296.711 566.197 295.585C563.086 293.685 562.121 290.425 561.274 287.117C562.684 280.832 565.172 273.727 567.785 267.852C569.473 264.055 571.094 262.08 574.996 260.576Z"/>
	<path fill="#05151A" d="M444.144 260.551C445.597 260.497 447.102 260.625 448.508 261.017C451.143 261.752 452.375 263.902 453.586 266.174C456.297 271.256 463.642 285.601 461.867 290.667C460.771 293.794 458.39 295.645 455.469 296.965C454.267 297.012 453.045 297.068 451.887 296.683C448.373 295.516 445.798 291.121 444.217 287.984C441.214 282.026 435.794 272.571 438.237 265.865C439.26 263.058 441.619 261.815 444.144 260.551Z"/>
	<path fill="#05151A" d="M509.023 243.547C510.241 243.392 511.413 243.33 512.638 243.481C516.067 243.903 518.012 246.402 519.96 248.991C520.188 256.199 521.034 274.964 519.843 281.373C517.989 283.319 516.312 284.847 513.979 286.211C513.174 286.353 512.321 286.511 511.5 286.482C509.371 286.407 506.947 285 505.677 283.323C504.281 281.481 503.544 279.252 503.192 276.992C502.213 270.702 502.708 254.742 503.702 248.336C505.313 246.318 506.835 244.934 509.023 243.547Z"/>
	<path fill="#0A2225" d="M631.608 296.987C632.556 297.089 633.428 297.213 634.343 297.487C636.781 298.217 639.191 300.369 640.253 302.673C641.124 304.562 641.208 306.934 640.435 308.878C639.966 310.059 639.074 311.05 638.23 311.975C634.673 315.873 630.452 319.249 626.767 323.047C623.566 326.347 620.829 330.248 617.486 333.373C616.445 334.346 615.244 334.939 613.956 335.519C613.223 335.541 612.481 335.581 611.749 335.505C609.6 335.283 606.716 333.94 605.56 332.068C604.31 330.045 604.707 327.25 605.476 325.131C607.038 320.824 623.488 302.798 627.424 299.472C628.689 298.404 630.114 297.677 631.608 296.987Z"/>
	<path fill="#05151A" d="M637.412 365.561C647.566 365.018 658.173 365.21 668.34 365.609C670.433 366.942 672.521 368.642 673.411 371.032C674.193 373.136 674.331 375.51 673.33 377.562C672.077 380.127 670.232 381.507 667.62 382.499C661.464 382.541 640.38 383.882 636.455 382.954C634.586 382.512 633.22 380.693 632.38 379.079C631.12 376.655 630.934 373.246 631.916 370.698C632.969 367.965 634.846 366.733 637.412 365.561Z"/>
	<path fill="#05151A" d="M386.941 297.522C388.192 297.516 389.463 297.508 390.692 297.77C394.951 298.679 414.098 319.963 416.467 323.959C417.663 325.976 418.32 327.886 417.607 330.212C416.741 333.037 414.48 334.627 412.045 336.035C411.024 336.053 409.937 336.086 408.941 335.83C403.968 334.554 385.008 314.213 382.108 309.536C381.02 307.781 380.73 305.786 381.271 303.788C382.081 300.799 384.333 298.94 386.941 297.522Z"/>
	<path fill="#0A2225" d="M368.933 365.262C373.736 365.075 382.858 363.606 386.646 366.654C388.727 368.327 389.874 371.036 390.008 373.663C390.138 376.224 389.346 378.995 387.481 380.823C383.863 384.368 371.521 382.64 366.375 382.697C362.168 382.736 352.433 383.942 349.192 380.955C347.33 379.24 346.242 376.659 346.224 374.138C346.208 371.903 347.057 369.628 348.683 368.069C352.864 364.063 363.463 365.291 368.933 365.262Z"/>
</svg>
