<?xml version="1.0" encoding="utf-8" ?>
<svg xmlns="http://www.w3.org/2000/svg" xmlns:xlink="http://www.w3.org/1999/xlink" width="876" height="876">
	<path fill="#906D3A" transform="scale(0.855722 0.855722)" d="M457.877 161.088C459.031 160.261 460.156 160.416 461.506 160.435L461.813 165.004C460.781 166.421 459.607 167.081 458.466 168.284C458.627 167.424 458.794 166.56 458.912 165.693C459.177 163.762 459.042 162.649 457.877 161.088Z"/>
	<path fill="#475D4C" transform="scale(0.855722 0.855722)" d="M534.634 511.983L534.904 512.8C534.566 514.016 534.377 513.912 534.916 515.148C535.521 515.462 536.138 515.862 536.796 516.04Q536.114 518.555 535.356 521.047C533.132 520.601 531.297 519.959 529.612 518.419C530.835 516.409 532.723 513.313 534.634 511.983Z"/>
	<path fill="#182C27" fill-opacity="0.94901961" transform="scale(0.855722 0.855722)" d="M153.045 486.433C154.255 492.553 155.175 505.283 152.477 510.881C150.376 504.189 152.385 493.326 153.045 486.433Z"/>
	<path fill="#644620" transform="scale(0.855722 0.855722)" d="M452.018 156.867L452.629 156.723C455.44 156.031 459.871 153.08 462.416 154.247C463.259 156.311 462.371 158.144 461.652 160.113C457.676 160.043 455.871 156.575 452.018 156.867Z"/>
	<path fill="#644620" transform="scale(0.855722 0.855722)" d="M430.091 231.424C433.839 229.991 440.158 227.184 444.122 228.731C443.972 229.847 443.453 230.056 442.553 230.72C440.882 231.953 438.906 232.88 437.069 233.846C435.126 231.893 432.671 231.825 430.091 231.424Z"/>
	<path fill="#475D4C" transform="scale(0.855722 0.855722)" d="M510.588 342.807C512.357 343.177 515.542 344.261 517.098 343.355L518.747 343.944C516.534 347.19 516.284 357.49 512.82 358.072C512.075 358.197 511.136 358.075 510.376 358.044C510.939 357.902 511.503 357.758 512.055 357.574C513.381 357.13 514.226 356.244 514.791 354.99C516.188 351.891 512.882 348.729 511.947 346.021C511.561 344.902 511.092 343.875 510.588 342.807Z"/>
	<path fill="#182C27" transform="scale(0.855722 0.855722)" d="M502.736 373.909C506.153 378.231 506.369 391.801 505.687 397.271C505.518 398.628 505.458 399.209 504.425 400.125C502.774 392.185 504.082 383.473 502.466 375.404C502.272 374.432 502.219 374.989 502.736 373.909Z"/>
	<path fill="#7A5827" transform="scale(0.855722 0.855722)" d="M441.141 159.884C444.751 158.664 448.29 157.659 452.018 156.867C455.871 156.575 457.676 160.043 461.652 160.113L461.506 160.435C460.156 160.416 459.031 160.261 457.877 161.088L453.163 162.894C453.032 162.762 452.918 162.612 452.772 162.498C450.825 160.989 443.715 159.855 441.141 159.884Z"/>
	<path fill="#283F33" transform="scale(0.855722 0.855722)" d="M576.512 889.653L576.525 888.398C577.699 887.611 578.897 886.942 580.029 886.087L579.885 885.529L577.314 884.385L577.607 883.814C584.385 885.052 591.981 887.691 598.418 890.219C591.129 890.971 583.784 890.379 576.512 889.653Z"/>
	<path fill="#365041" transform="scale(0.855722 0.855722)" d="M503.102 276.948L503.785 275.777C505.135 275.36 505.784 275.225 506.685 274.061C506.853 275.079 507.258 276.425 507.218 277.431C508.768 278.704 509.897 279.672 512.02 279.498C513.477 279.379 514.866 278.854 516.225 278.348Q517.762 279.832 519.381 281.226C517.202 284.982 517.335 290.609 513.548 293.147C512.406 293.259 511.758 293.381 510.761 292.618C508.06 290.552 507.282 284.395 506.551 281.319C505.534 279.651 504.483 278.329 503.102 276.948Z"/>
	<path fill="#644620" transform="scale(0.855722 0.855722)" d="M209.984 522.867C211.565 522.871 213.903 522.631 215.397 523.119C217.061 523.663 218.103 524.701 218.891 526.225C221.289 530.865 219.518 540.021 217.927 544.791C216.985 544.986 216.218 544.95 215.261 544.92C214.659 544.471 214.182 544.046 213.813 543.378C211.688 539.536 208.693 526.926 209.984 522.867Z"/>
	<path fill="#365041" transform="scale(0.855722 0.855722)" d="M529.612 518.419C531.297 519.959 533.132 520.601 535.356 521.047C533.129 527.381 530.493 535.937 526.715 541.515C526.036 540.326 526.478 539.758 526.777 538.479C525.421 537.08 523.396 536.06 521.75 535.014L521.592 533.546L520.918 533.449C519.885 535.259 518.638 536.874 517.384 538.533L516.69 538.092C520.153 531.397 524.489 523.926 529.612 518.419Z"/>
	<path fill="#7A5827" transform="scale(0.855722 0.855722)" d="M286.613 300.468C287.347 296.431 289.625 291.866 291.718 288.354C293.294 285.709 295.763 282.331 298.986 281.673C300.854 281.292 302.234 282.152 303.769 283.067C304.436 285.269 305.077 287.138 303.851 289.287C301.68 293.094 293.715 299.832 289.168 300.691C288.184 300.876 287.55 300.743 286.613 300.468Z"/>
	<path fill="#182C27" transform="scale(0.855722 0.855722)" d="M714.706 825.941L721.029 826.082C722.476 827.505 723.852 829.011 725.254 830.479C725.403 832.494 725.666 834.662 725.401 836.669C724.936 840.182 722.705 841.78 720.055 843.76C718.494 843.978 716.765 844.21 715.198 843.966C713.162 843.65 711.299 841.873 710.284 840.168C708.78 837.641 708.611 834.482 709.423 831.698C710.316 828.637 712.04 827.463 714.706 825.941Z"/>
	<path fill="#283F33" transform="scale(0.855722 0.855722)" d="M700.037 182.661C706.329 184.119 712.21 187.243 717.876 190.29C725.022 194.133 751.055 210.209 755.1 216.612L753.902 216.763C751.943 214.894 749.786 213.515 747.797 211.752C744.743 209.044 742.012 206.158 737.415 206.493C736.042 206.594 735.842 206.705 734.921 207.619L734.853 208.478C735.112 208.654 735.372 208.828 735.629 209.007C740.169 212.176 746.939 218.082 749.509 222.884C744.542 220.388 738.254 212.804 733.565 209.001C722.527 200.051 710.885 191.848 700.037 182.661Z"/>
	<path fill="#182C27" transform="scale(0.855722 0.855722)" d="M504.138 149.125C506.288 146.229 508.739 141.893 509.364 138.335C510.727 130.583 506.44 107.881 510.801 102.415C511.912 101.975 512.437 101.75 513.64 102.262C520.153 105.038 515.591 133.782 516.496 140.839C516.762 142.916 517.868 144.773 518.859 146.582C517.518 146.096 517.124 145.873 516.563 144.52C515.713 142.47 515.65 138.778 513.959 137.519C512.547 137.646 512.006 137.929 511.067 139.031C509.327 141.074 508.29 143.995 507.246 146.45L507.795 147.042C506.614 147.82 505.388 148.468 504.138 149.125Z"/>
	<path fill="#906D3A" transform="scale(0.855722 0.855722)" d="M324.451 270.389C339.468 261.311 351.446 262.292 368.12 262.768C368.637 263.999 368.77 264.316 368.204 265.643C367.919 266.313 367.284 267.018 366.839 267.599C364.919 268.109 362.86 268.847 360.868 268.884C359.63 269.621 358.257 270.51 356.882 270.953C351.297 272.752 337.783 271.999 331.826 271.123C328.745 271.367 327.237 272.093 324.451 270.389ZM331.826 271.123C337.783 271.999 351.297 272.752 356.882 270.953C358.257 270.51 359.63 269.621 360.868 268.884C350.931 265.59 341.321 267.52 331.826 271.123Z"/>
	<path fill="#906D3A" transform="scale(0.855722 0.855722)" d="M439.48 184.508C441.161 184.467 442.439 184.279 443.865 185.337C444.103 185.989 444.354 186.204 444.063 186.903C442.129 191.541 404.845 208.776 397.834 211.271C397.071 211.466 396.182 211.765 395.4 211.806C394.182 211.871 393.953 211.864 393.087 211.048C394.6 207.525 423.005 192.005 427.317 189.809C431.245 187.808 435.4 186.177 439.48 184.508Z"/>
	<defs>
		<linearGradient id="gradient_0" gradientUnits="userSpaceOnUse" x1="414.75363" y1="227.28029" x2="411.18903" y2="220.79652">
			<stop offset="0" stop-color="#91691F"/>
			<stop offset="1" stop-color="#A17F32"/>
		</linearGradient>
	</defs>
	<path fill="url(#gradient_0)" transform="scale(0.855722 0.855722)" d="M435.7 211.713C436.755 211.495 438.48 211.686 439.36 212.341C439.87 212.721 439.83 213.385 439.952 213.967C439.565 214.997 439.537 215.605 438.475 216.101C434.981 217.732 430.868 218.399 427.27 219.924Q408.929 227.884 391.328 237.371C390.572 237.676 389.923 237.896 389.114 238.043C388.128 238.223 388.57 238.27 387.648 237.62C387.725 236.599 388.115 235.86 388.759 235.067C396.811 225.154 423.224 213.558 435.7 211.713Z"/>
	<path fill="#906D3A" transform="scale(0.855722 0.855722)" d="M430.091 231.424C432.671 231.825 435.126 231.893 437.069 233.846C428.131 237.155 419.724 240.647 411.439 245.434C403.926 249.775 396.856 254.855 389.311 259.13C387.5 259.822 385.614 260.715 383.634 260.503C382.446 260.376 381.908 260.012 381.229 259.089C381.264 258.873 381.282 258.654 381.336 258.442C382.012 255.755 385.311 254.34 387.506 253.001C400.763 243.84 415.088 237.131 430.091 231.424Z"/>
	<path fill="#283F33" transform="scale(0.855722 0.855722)" d="M516.69 538.092L517.384 538.533C518.638 536.874 519.885 535.259 520.918 533.449L521.592 533.546L521.75 535.014C523.396 536.06 525.421 537.08 526.777 538.479C526.478 539.758 526.036 540.326 526.715 541.515C524.592 547.692 520.651 553.701 517.95 559.712C514.571 567.229 512.31 575.759 508.007 582.76C506.064 583.024 504.148 583.498 502.231 583.911C501.93 580.428 501.291 576.571 501.739 573.107C502.784 565.022 511.876 545.08 516.69 538.092Z"/>
	<path fill="#906D3A" transform="scale(0.855722 0.855722)" d="M441.141 159.884C443.715 159.855 450.825 160.989 452.772 162.498C452.918 162.612 453.032 162.762 453.163 162.894C443.564 167.892 433.279 171.744 423.567 176.56C415.875 180.374 408.289 184.936 400.816 189.176C395.065 192.439 390.644 196.04 383.909 197.183C381.83 197.535 376.222 198.917 374.476 197.686C376.038 195.58 379.019 194.23 381.183 192.735C399.972 179.757 420.404 169.377 441.141 159.884Z"/>
	<path fill="#365041" transform="scale(0.855722 0.855722)" d="M657.22 507.522C658.334 507.805 659.653 508.17 660.554 508.917C661.637 509.815 661.646 510.366 661.682 511.637C659.699 515.705 655.795 518.864 652.532 521.939C634.223 539.189 608.325 556.106 584.596 564.571L579.261 565.717C584.204 561.973 588.134 557.37 593.384 553.936C602.864 547.736 613.308 543.552 622.382 536.566C626.204 533.623 628.924 529.602 632.378 526.292C635.323 523.469 639.251 521.445 642.528 518.982C647.49 515.252 651.882 510.725 657.22 507.522Z"/>
	<defs>
		<linearGradient id="gradient_1" gradientUnits="userSpaceOnUse" x1="447.89771" y1="532.1095" x2="395.63306" y2="483.29254">
			<stop offset="0" stop-color="#2F443B"/>
			<stop offset="1" stop-color="#4A5F48"/>
		</linearGradient>
	</defs>
	<path fill="url(#gradient_1)" transform="scale(0.855722 0.855722)" d="M387.814 494.483C387.763 493.651 387.853 493.056 388.066 492.252C389.232 491.189 390.418 490.079 391.815 489.326C395.795 487.178 399.071 487.548 403.166 488.653C408.511 490.973 413.857 492.992 419.359 494.91C422.957 496.209 428.592 498.53 432.334 497.517C437.648 504.441 449.313 525.792 450.589 534.28C450.722 535.16 450.745 535.295 450.234 536.045L449.268 535.976C448.472 534.927 447.791 534.188 446.634 533.537C442.03 530.946 436.924 528.882 432.149 526.592C424.069 522.717 415.855 518.366 408.306 513.537C403.083 510.197 398.525 505.997 394.206 501.575C392.068 499.386 389.438 497.07 387.814 494.483Z"/>
	<defs>
		<linearGradient id="gradient_2" gradientUnits="userSpaceOnUse" x1="233.86063" y1="663.79224" x2="203.32214" y2="671.41058">
			<stop offset="0" stop-color="#433A21"/>
			<stop offset="1" stop-color="#725227"/>
		</linearGradient>
	</defs>
	<path fill="url(#gradient_2)" transform="scale(0.855722 0.855722)" d="M239.412 727.829C230.409 712.505 220.875 697.158 212.973 681.233C204.801 664.763 184.138 615.66 187.141 598.309L187.872 597.776L187.533 597.802L187.388 597.134L187.768 597.737C187.965 597.791 188.169 597.827 188.361 597.899C191.593 599.122 193.579 603.06 194.716 606.102C198.045 615.007 200.159 624.387 203.264 633.394C208.244 647.835 214.803 662.177 221.503 675.896Q229.472 692.138 238.184 707.995C243.523 717.489 249.976 727.268 253.848 737.458C248.62 735.067 244.536 730.472 239.412 727.829Z"/>
	<defs>
		<linearGradient id="gradient_3" gradientUnits="userSpaceOnUse" x1="428.16824" y1="643.24512" x2="398.01697" y2="653.68811">
			<stop offset="0" stop-color="#273A34"/>
			<stop offset="1" stop-color="#3F5040"/>
		</linearGradient>
	</defs>
	<path fill="url(#gradient_3)" transform="scale(0.855722 0.855722)" d="M377.508 603.297C379.168 603.526 380.061 605.373 381.138 605.403C385.384 605.523 388.712 600.022 395.859 601.522C402.82 602.983 410.485 611.649 417.552 610.432L417.926 609.518Q419.638 616.406 420.452 623.456Q421.267 630.506 421.172 637.602C421.062 642.621 420.36 647.982 420.814 652.961C421.604 661.627 425.83 669.957 427.361 678.609Q428.278 683.579 428.403 688.632C428.463 692.179 428.41 699.381 425.885 701.989C421.646 699.163 415.871 677.524 415.417 671.892C414.942 665.995 416.828 659.807 414.906 654.107C412.088 645.75 397.494 624.517 391.13 617.7C387.067 613.349 380.678 608.112 377.508 603.297Z"/>
	<path fill="#475D4C" transform="scale(0.855722 0.855722)" d="M433.831 477.252L434.186 476.384C433.798 475.068 433.709 475.05 434.247 473.806C435.146 473.501 435.506 473.182 436.502 473.586C436.681 473.659 437.884 474.605 437.954 474.657C438.835 475.323 460.567 487.347 461.493 487.594L460.814 486.229C462.91 486.345 466.89 489.401 468.277 490.964C469.295 492.11 469.69 492.982 470.314 494.351C470.726 495.257 471.359 495.78 472.135 496.359C474.821 505.296 469.735 519.775 469.61 529.057C469.508 536.552 472.231 543.865 473.645 551.156C474.916 557.708 475.674 576.198 474.908 582.875C473.277 585.657 473.989 589.089 472.727 592.008C472.426 591.446 472.141 590.881 471.85 590.314C470.428 587.549 464.652 562.43 464.371 558.766C463.633 549.134 464.224 538.45 461.436 529.159C457.595 516.363 450.831 502.598 443.468 491.486C440.561 487.098 436.338 482.563 434.112 477.865C434.016 477.662 433.925 477.456 433.831 477.252Z"/>
	<path fill="#7A5827" transform="scale(0.855722 0.855722)" d="M367.183 208.114C367.416 208.063 367.647 207.995 367.884 207.962C372.13 207.355 380.245 208.263 383.631 210.997C384.666 211.832 385.148 212.751 385.173 214.1C385.272 219.439 375.812 233.416 372.073 237.257C363.396 246.168 352.305 248.421 340.332 248.536C338.608 250.013 337.201 251.456 335.831 253.268C333.69 256.074 331.055 259.114 327.403 259.835C325.93 260.125 324.658 260.039 323.369 259.236C323.217 257.582 324.121 255.966 324.875 254.547C327.479 249.647 331.295 245.451 334.049 240.641C337.201 235.135 338.877 229.094 342.657 223.89C348.658 215.63 357.029 209.738 367.183 208.114Z"/>
	<defs>
		<linearGradient id="gradient_4" gradientUnits="userSpaceOnUse" x1="294.10815" y1="680.69818" x2="316.4389" y2="667.34583">
			<stop offset="0" stop-color="#684E29"/>
			<stop offset="1" stop-color="#876439"/>
		</linearGradient>
	</defs>
	<path fill="url(#gradient_4)" transform="scale(0.855722 0.855722)" d="M269.405 606.224C270.455 606.772 271.099 607.585 271.689 608.59C274.683 613.696 276.718 620.045 278.779 625.587C282.192 634.763 285.439 643.954 289.509 652.871C292.722 659.911 296.636 666.805 300.638 673.431Q302.846 677.139 305.236 680.732Q307.627 684.325 310.194 687.794Q312.761 691.263 315.499 694.599Q318.237 697.935 321.138 701.13Q324.039 704.325 327.097 707.37Q330.154 710.416 333.36 713.304Q336.567 716.193 339.913 718.918Q343.26 721.642 346.739 724.196C350.19 726.758 353.424 729.565 357.227 731.613C355.665 732.734 353.92 733.516 352.198 734.358C349.899 735.903 346.682 736.791 344.036 737.567C331.388 728.234 317.62 715.697 308.055 703.206C301.396 694.511 294.954 684.648 289.796 674.998C281.755 659.951 267.228 623.018 269.405 606.224Z"/>
	<path fill="#644620" transform="scale(0.855722 0.855722)" d="M262.154 455.922L264.276 454.562L265.021 454.777C265.345 457.223 264.246 460.665 263.979 463.19C262.522 476.945 261.204 488.349 252.572 499.704C244.573 510.226 232.435 518.034 220.293 523.004C219.596 512.913 220.821 499.625 224.047 489.994C224.912 488.646 225.355 486.806 225.973 485.307C227.672 481.182 229.965 477.07 233.002 473.781C238.371 467.968 245.966 463.837 253.145 460.72C255.338 459.769 257.708 459.083 259.827 457.985C260.856 457.451 261.554 456.942 262.154 455.922Z"/>
	<path fill="#644620" transform="scale(0.855722 0.855722)" d="M260.189 514.323L260.865 515.058C261.678 517.977 261.268 520.92 261.595 523.897C263.202 538.52 263.749 546.318 257.618 560.311C252.193 572.692 241.339 583.865 228.67 588.868C227.774 589.008 228.286 589.007 227.145 588.7C225.706 585.663 226.235 564.464 226.525 560.115C227.337 547.975 234.867 536.229 243.758 528.284C247.226 525.185 251.138 522.64 254.677 519.637C256.604 518.003 258.271 516.014 260.189 514.323ZM254.842 528.994C245.942 532.438 239.149 539.203 235.289 547.903C234.744 549.132 234.364 550.346 234.137 551.668C234.441 551.656 234.782 551.742 235.045 551.591C238.27 548.785 240.294 545.025 243.381 542.169C246.378 539.398 255.637 535.017 256.476 531.27C256.209 530.267 256.134 529.836 255.445 529.03L254.842 528.994Z"/>
	<path fill="#7A5827" transform="scale(0.855722 0.855722)" d="M232.941 381.908C229.281 381.056 226.216 378.61 223.685 375.89C215.227 366.802 212.37 354.545 212.915 342.433C213.446 330.618 218.472 322.668 224.339 312.759C226.029 309.904 227.863 306.025 230.447 303.933C231.863 302.786 232.741 303.054 234.44 303.164C233.128 314.058 236.314 319.709 240.007 329.483C244.742 342.016 244.682 354.082 240.904 366.819C239.399 371.89 236.963 378.284 232.941 381.908ZM227.262 320.552C227.719 325.647 233.864 340.422 237.752 344.006C237.836 344.083 237.928 344.151 238.016 344.223C237.794 337.742 235.423 326.016 230.324 321.544C229.469 320.794 228.355 320.777 227.262 320.552Z"/>
	<defs>
		<linearGradient id="gradient_5" gradientUnits="userSpaceOnUse" x1="269.77783" y1="682.97333" x2="297.45273" y2="663.31964">
			<stop offset="0" stop-color="#5E4525"/>
			<stop offset="1" stop-color="#775B2B"/>
		</linearGradient>
	</defs>
	<path fill="url(#gradient_5)" transform="scale(0.855722 0.855722)" d="M247.058 594.815C248.706 594.933 249.312 594.871 250.726 595.79C253.208 601.645 255.046 614.917 257.14 622.081C259.641 630.637 261.872 639.344 264.975 647.704C272.084 666.854 283.237 685.693 295.057 702.279C299.593 708.645 304.757 714.994 309.972 720.823C313.238 724.474 331.085 741.697 331.303 743.532C330.251 744.875 329.308 745.031 327.744 745.656L321.974 748.307C302.804 737.377 275.054 692.175 265.306 671.971C259.754 660.466 254.67 648.505 251.771 636.023C250.783 631.769 250.459 627.382 249.52 623.116C247.424 613.585 243.682 604.498 247.058 594.815Z"/>
	<path fill="#283F33" transform="scale(0.855722 0.855722)" d="M326.253 618.564C326.922 618.541 326.631 618.663 327.12 618.181L325.432 616.121L325.635 615.373C328.066 614.17 331.532 612.076 334.193 611.68C337.318 611.215 339.88 613.554 342.708 614.392C349.382 616.369 357.118 617.861 364.061 618.076C366.354 618.147 368.238 616.266 370.541 616.073L371.916 617.253L372.084 616.208C381.623 624.014 399.467 647.22 402.102 659.114C394.048 657.972 386.452 655.74 378.675 653.442C363.271 648.89 352.7 645.233 340.473 634.347C336.404 630.725 332.344 626.84 329.042 622.486Q327.603 620.557 326.253 618.564Z"/>
	<defs>
		<linearGradient id="gradient_6" gradientUnits="userSpaceOnUse" x1="691.01727" y1="193.19214" x2="669.76331" y2="261.20914">
			<stop offset="0" stop-color="#162520"/>
			<stop offset="1" stop-color="#27383C"/>
		</linearGradient>
	</defs>
	<path fill="url(#gradient_6)" transform="scale(0.855722 0.855722)" d="M604.67 174.209C634.545 170.455 679.129 187.512 703.623 204.575C728.491 221.898 751.691 247.1 761.588 276.154C762.696 279.407 762.88 282.9 763.778 286.21C764.745 289.773 766.096 293.179 766.762 296.826L766.435 297.135C764.375 294.68 762.926 291.54 761.391 288.727C752.857 272.007 736.43 249.417 723.487 235.491C709.42 220.356 688.575 204.44 669.981 195.504C660.98 191.178 651.565 188.081 642.076 185.053C633.92 182.451 625.699 179.983 617.217 178.686C607.234 177.159 596.988 177.592 586.929 177.22C592.901 175.423 598.444 174.598 604.67 174.209Z"/>
	<defs>
		<linearGradient id="gradient_7" gradientUnits="userSpaceOnUse" x1="587.10272" y1="529.72406" x2="594.45038" y2="482.73904">
			<stop offset="0" stop-color="#2E413E"/>
			<stop offset="1" stop-color="#4D624A"/>
		</linearGradient>
	</defs>
	<path fill="url(#gradient_7)" transform="scale(0.855722 0.855722)" d="M548.967 525.15C550.783 521.094 552.467 517.111 554.869 513.35C560.759 504.127 573.392 490.49 581.913 483.508C581.285 484.536 580.68 485.509 579.931 486.456C580.064 487.188 579.951 487.489 580.594 487.987C586.131 492.261 606.927 486.095 614.49 485.677C621.634 485.283 626.628 492.821 632.904 492.178C632.4 492.777 631.886 493.371 631.336 493.929C617.663 507.814 602.236 515.345 583.223 518.906C578.36 519.816 573.412 520.238 568.562 521.227C561.992 522.567 555.746 525.161 548.967 525.15Z"/>
	<defs>
		<linearGradient id="gradient_8" gradientUnits="userSpaceOnUse" x1="190.76671" y1="435.21228" x2="219.44835" y2="377.38638">
			<stop offset="0" stop-color="#654521"/>
			<stop offset="1" stop-color="#7F5A27"/>
		</linearGradient>
	</defs>
	<path fill="url(#gradient_8)" transform="scale(0.855722 0.855722)" d="M197.357 363.208C203.341 382.071 215.868 389.096 219.587 413.089L219.633 414.419C220.255 419.972 220.064 425.642 220.016 431.224C219.057 435.578 218.082 444.232 213.931 446.586C212.647 447.313 211.624 446.704 210.358 446.313C201.047 441.518 192.103 431.919 188.509 422.004C186.755 417.163 186.475 412.147 186.382 407.046C186.057 389.139 189.824 379.279 197.357 363.208Z"/>
	<path fill="#644620" transform="scale(0.855722 0.855722)" d="M167.098 513.332C169.602 515.693 171.795 518.336 174.483 520.508C178.841 524.029 183.872 526.596 188.381 529.904C198.885 537.607 207.363 550.656 211.338 562.966C213.145 568.56 216.839 583.874 214.085 589.195C209.611 589.655 203.844 587.831 199.687 586.091C188.118 581.25 176.322 569.482 171.586 557.861C168.692 550.76 164.602 519.344 167.098 513.332ZM174.497 532.882C176 534.834 199.297 552.543 200.556 552.722C200.136 548.006 196.356 544.238 192.876 541.311C187.769 537.014 181.292 533.256 174.497 532.882Z"/>
	<path fill="#644620" transform="scale(0.855722 0.855722)" d="M209.637 512.554C209.55 513.722 209.553 515.193 209.066 516.267C208.652 517.181 207.711 517.917 206.766 518.206C204.302 518.962 201.361 517.867 199.133 516.869C186.598 511.254 177.162 500.612 172.43 487.822C167.538 474.604 170.133 458.516 172.31 444.993C172.865 441.543 173.066 437.41 174.525 434.244L175.314 434.059C177.075 435.468 179.302 442.72 181.139 445.425C183.669 449.15 187.052 452.323 190.118 455.607C195.954 461.86 200.068 468.21 203.532 476.025C208.101 487.993 210.734 499.691 209.637 512.554ZM178.979 455.22C179.123 457.207 179.199 458.966 180.312 460.675C183.062 464.899 188.225 468.48 191.715 472.215C194.596 475.299 196.866 479.509 199.928 482.299C200.284 482.623 200.705 482.916 201.111 483.171C196.395 470.543 190.358 462.522 178.979 455.22Z"/>
	<defs>
		<linearGradient id="gradient_9" gradientUnits="userSpaceOnUse" x1="320.74133" y1="680.79608" x2="351.70715" y2="658.43433">
			<stop offset="0" stop-color="#75572C"/>
			<stop offset="1" stop-color="#95703A"/>
		</linearGradient>
	</defs>
	<path fill="url(#gradient_9)" transform="scale(0.855722 0.855722)" d="M290.346 618.461C294.521 618.061 292.548 612.876 294.955 610.737L295.694 612.818L296.328 612.046C296.425 612.221 296.526 612.394 296.619 612.571C302.513 623.816 306.472 636.1 312.61 647.274C328.1 675.469 355.766 696.466 383.857 711.211C388.251 713.517 392.9 715.133 397.319 717.314Q386.55 721.78 375.396 725.172C353.981 716.543 328.642 694.774 315.86 675.595C308.474 664.514 302.905 651.806 297.699 639.583Q293.323 629.266 290.346 618.461Z"/>
	<path fill="#7A5827" transform="scale(0.855722 0.855722)" d="M355.11 180.897C364.217 175.511 409.921 143.797 418.599 146.014C419.222 146.173 419.23 146.212 419.71 146.488C420.251 147.592 420.177 147.893 419.762 149.132C418.798 152.007 400.941 160.973 397.033 163.216C380.145 172.909 362.733 183.033 347.397 195.036C337.64 202.672 328.787 212.411 318.503 219.184C318.536 235.351 316.65 260.529 304.453 272.433C302.82 274.027 300.911 275.486 299.026 276.765C292.808 271.238 288.828 265.869 288.275 257.213C287.963 252.314 288.947 247.51 290.063 242.761C290.521 242.306 290.368 242.536 290.638 241.981C292.648 237.845 295.711 234.075 298.589 230.506C303.024 227.098 307.516 223.687 311.692 219.962C316.479 213.082 321.999 207.459 328.255 201.902Q334.469 196.041 341.197 190.779Q347.925 185.516 355.11 180.897Z"/>
	<path fill="#906D3A" transform="scale(0.855722 0.855722)" d="M308.81 227.669C309.949 227.738 310.597 227.715 311.503 228.454C313.442 233.219 313.077 240.167 311.776 245.088C311.749 245.058 311.716 245.033 311.694 244.999C308.9 240.681 308.081 232.568 308.81 227.669Z"/>
	<path fill="#906D3A" transform="scale(0.855722 0.855722)" d="M656.404 329.596C658 329.365 660.28 329.338 661.456 328.195C659.48 323.329 645.035 322.237 644.206 304.189C644.028 300.311 644.467 296.33 645.985 292.736C648.35 287.132 652.917 282.974 658.545 280.76C664.354 278.475 671.059 278.292 676.802 280.894C682.655 283.546 686.787 288.903 688.938 294.85C691.644 302.333 691.281 311.835 687.777 318.962Q687.369 319.786 686.922 320.59Q686.475 321.393 685.989 322.173Q685.503 322.954 684.979 323.71Q684.455 324.466 683.896 325.195Q683.336 325.924 682.741 326.625Q682.146 327.326 681.517 327.998Q680.889 328.669 680.229 329.309Q679.568 329.948 678.877 330.555Q678.186 331.162 677.467 331.734Q676.747 332.306 676 332.842Q675.253 333.379 674.481 333.878Q673.709 334.377 672.913 334.838Q672.118 335.299 671.301 335.72Q670.483 336.142 669.647 336.523Q668.81 336.904 667.955 337.244Q667.101 337.583 666.231 337.881C663.2 338.898 660.11 339.125 656.945 339.233C656.074 339.115 655.377 338.976 654.566 338.633L654.821 338.302L655.758 338.422C656.319 338.165 655.741 331.36 656.404 329.596Z"/>
	<defs>
		<linearGradient id="gradient_10" gradientUnits="userSpaceOnUse" x1="560.02954" y1="379.02716" x2="536.71594" y2="349.07056">
			<stop offset="0" stop-color="#112828"/>
			<stop offset="1" stop-color="#354A3C"/>
		</linearGradient>
	</defs>
	<path fill="url(#gradient_10)" transform="scale(0.855722 0.855722)" d="M571.955 320.212C572.639 320.425 572.264 320.231 572.937 321.013C573.206 336.004 573.04 357.501 565.094 370.718C553.887 389.36 541.797 395.873 521.253 401.323L520.151 400.819C519.966 400.361 519.877 400.199 519.798 399.65C519.267 395.947 519.759 391.583 519.874 387.827C520.505 367.249 527.499 353.91 544.728 342.382C550.409 338.582 557.381 336.174 562.572 331.745C566.39 328.486 568.66 323.933 571.955 320.212Z"/>
	<defs>
		<linearGradient id="gradient_11" gradientUnits="userSpaceOnUse" x1="461.46054" y1="377.2746" x2="485.96359" y2="348.31531">
			<stop offset="0" stop-color="#10211C"/>
			<stop offset="1" stop-color="#3E574B"/>
		</linearGradient>
	</defs>
	<path fill="url(#gradient_11)" transform="scale(0.855722 0.855722)" d="M504.425 400.125C499.627 399.46 494.896 399.057 490.244 397.606Q488.828 397.162 487.437 396.644Q486.046 396.126 484.685 395.535Q483.323 394.944 481.995 394.282Q480.667 393.62 479.375 392.889Q478.084 392.157 476.833 391.359Q475.582 390.56 474.375 389.696Q473.168 388.833 472.009 387.906Q470.849 386.98 469.74 385.994Q468.631 385.007 467.576 383.964Q466.521 382.92 465.522 381.822Q464.524 380.724 463.585 379.575Q462.646 378.426 461.769 377.228Q460.892 376.031 460.079 374.789Q459.267 373.547 458.521 372.264Q457.775 370.981 457.099 369.66Q456.422 368.339 455.816 366.984C454.479 363.94 448.573 320.693 449.278 318.998C452.934 319.79 456.687 327.683 459.433 330.425C463.364 334.349 469.065 335.819 473.794 338.465C477.388 340.476 480.996 343.298 484.192 345.902C490.941 351.401 501.87 365.045 502.736 373.909C502.219 374.989 502.272 374.432 502.466 375.404C504.082 383.473 502.774 392.185 504.425 400.125Z"/>
	<defs>
		<linearGradient id="gradient_12" gradientUnits="userSpaceOnUse" x1="558.10913" y1="315.74741" x2="534.19281" y2="287.27829">
			<stop offset="0" stop-color="#0F2424"/>
			<stop offset="1" stop-color="#3D5243"/>
		</linearGradient>
	</defs>
	<path fill="url(#gradient_12)" transform="scale(0.855722 0.855722)" d="M517.098 343.355L517.309 342.507C518.838 336.219 517.903 329.831 518.16 323.437C518.775 308.111 523.558 297.52 534.205 286.918C536.913 284.222 539.591 281.522 542.845 279.474C547.843 276.33 558.026 272.566 561.737 268.863C565.517 265.092 567.027 258.749 571.085 255.484L571.603 255.757C572.305 260.748 571.761 265.84 571.415 270.841C570.304 286.912 568.016 302.437 558.099 315.654C545.194 332.854 530.068 332.084 518.747 343.944L517.098 343.355Z"/>
	<path fill="#475D4C" transform="scale(0.855722 0.855722)" d="M564.575 270.349C564.861 271.459 564.832 272.544 564.757 273.68C564.276 280.986 560.501 287.997 554.944 292.7C551.506 295.609 536.889 304.087 532.91 303.763L534.119 303.234C536.435 302.353 539.256 301.497 541.181 299.922C543.723 297.842 543.065 294.974 543.533 292.087C544.102 288.585 547.642 284.102 550.554 282.133C552.885 280.556 554.992 280.499 557.674 281.043C558.27 281.164 558.86 281.314 559.461 281.404C560.913 281.622 561.366 281.504 562.561 280.681C564.207 277.947 564.458 273.518 564.575 270.349Z"/>
	<path fill="#182C27" transform="scale(0.855722 0.855722)" d="M559.504 204.617C563.145 193.008 556.287 173.351 563.846 163.831L564.785 163.61C566.887 165.09 566.975 167.632 567.396 170.051C569.281 180.877 566.807 191.648 566.441 202.482C566.09 212.88 567.494 224.232 565.042 234.391C563.467 240.917 560.104 247.413 556.221 252.852C545.69 267.604 530.723 268.58 519.459 281.158C519.436 281.184 519.407 281.204 519.381 281.226Q517.762 279.832 516.225 278.348C518.269 270.461 518.734 262.283 518.34 254.181L518.491 253.369C520.981 240.519 526.065 229.343 537.181 221.787C540.221 219.167 548.844 212.031 552.438 211.76C554.385 210.43 556.318 209.113 558.171 207.651L559.504 204.617Z"/>
	<path fill="#283F33" transform="scale(0.855722 0.855722)" d="M531.006 243.811C529.757 244.821 528.69 245.606 527.209 246.238C527.382 245.904 527.546 245.565 527.728 245.236C529.713 241.652 529.436 237.718 531.131 234.155C533.681 228.796 539.743 226.145 543.279 221.741C543.398 221.592 543.499 221.429 543.609 221.272L544.476 221.641C543.122 223.515 541.107 224.569 539.431 226.12C535.103 230.124 530.518 236.777 530.189 242.796C530.443 243.185 530.614 243.551 531.006 243.811Z"/>
	<defs>
		<linearGradient id="gradient_13" gradientUnits="userSpaceOnUse" x1="540.37476" y1="219.94295" x2="547.88348" y2="231.87805">
			<stop offset="0" stop-color="#2F493D"/>
			<stop offset="1" stop-color="#5A7A66"/>
		</linearGradient>
	</defs>
	<path fill="url(#gradient_13)" transform="scale(0.855722 0.855722)" d="M552.438 211.76C554.385 210.43 556.318 209.113 558.171 207.651C559.866 209.749 559.849 211.514 559.604 214.143C559.499 215.261 559.225 216.217 558.879 217.28C557.979 219.686 557.134 222.311 555.626 224.41C550.995 230.858 537.995 239.58 531.006 243.811C530.614 243.551 530.443 243.185 530.189 242.796C530.518 236.777 535.103 230.124 539.431 226.12C541.107 224.569 543.122 223.515 544.476 221.641L543.609 221.272C543.668 221.127 543.726 220.981 543.787 220.837C545.62 216.567 551.897 214.138 551.745 213.262L552.098 213.359L552.072 212.823C550.802 212.848 550.465 212.942 549.476 213.873C549.272 214.064 549.114 214.298 548.931 214.509C546.409 217.412 541.682 219.125 538.692 221.893C537.944 222.021 537.867 222.183 537.181 221.787C540.221 219.167 548.844 212.031 552.438 211.76Z"/>
	<path fill="#283F33" transform="scale(0.855722 0.855722)" d="M552.438 211.76C554.385 210.43 556.318 209.113 558.171 207.651C559.866 209.749 559.849 211.514 559.604 214.143C559.499 215.261 559.225 216.217 558.879 217.28C558.489 215.712 558.486 214.324 558.518 212.725C558.537 211.737 558.536 211.709 558.05 210.757C557.058 210.667 556.491 210.657 555.527 210.977C554.772 211.227 554.167 211.42 553.395 211.574L552.438 211.76Z"/>
	<defs>
		<linearGradient id="gradient_14" gradientUnits="userSpaceOnUse" x1="469.90353" y1="319.06052" x2="496.01996" y2="294.93399">
			<stop offset="0" stop-color="#14231F"/>
			<stop offset="1" stop-color="#375447"/>
		</linearGradient>
	</defs>
	<path fill="url(#gradient_14)" transform="scale(0.855722 0.855722)" d="M505.558 342.703C501.366 338.981 496.321 337.234 491.296 334.95C483.468 331.392 475.651 326.717 469.708 320.42C460.608 310.78 455.999 297.116 454.876 284.078C454.515 279.896 454.726 275.689 454.418 271.525C454.02 266.15 452.486 260.752 452.611 255.357L453.228 254.992C453.405 255.074 453.592 255.136 453.758 255.238C456.492 256.912 457.496 260.841 459.334 263.347C461.09 265.74 463.586 267.83 465.96 269.591C470.716 273.118 476.153 275.582 480.987 279.011C495.773 289.501 504.516 304.945 506.381 322.827C506.909 327.891 505.979 336.142 508.08 340.758C508.754 342.238 509.146 342.228 510.588 342.807C511.092 343.875 511.561 344.902 511.947 346.021C512.882 348.729 516.188 351.891 514.791 354.99C514.226 356.244 513.381 357.13 512.055 357.574C511.503 357.758 510.939 357.902 510.376 358.044C510.161 357.911 509.924 357.808 509.731 357.646C507.098 355.438 506.188 346.074 505.558 342.703Z"/>
	<path fill="#644620" transform="scale(0.855722 0.855722)" d="M216.929 595.632C219.645 595.423 222.353 595.544 225.071 595.628C226.541 608.665 231.869 624.428 236.131 636.867C248.34 672.503 264.726 704.414 289.083 733.44C296.374 742.129 304.639 750.135 312.181 758.639C310.536 759.907 308.766 761.038 307.051 762.211L301.781 766.599C299.953 765.407 298.279 763.903 296.644 762.459C266.911 736.198 247.667 699.504 233.317 663.157C230.255 655.403 226.877 647.578 224.521 639.583C220.471 625.841 217.793 609.932 216.929 595.632Z"/>
	<path fill="#182C27" transform="scale(0.855722 0.855722)" d="M461.813 165.004C462.44 166.781 463.354 168.5 463.909 170.279C465.442 175.194 465.145 180.717 465.798 185.796C465.221 192.746 465.135 200.566 466.567 207.392C470.038 210.731 474.949 212.311 479.002 214.856C490.265 221.926 494.513 229.807 502.118 240.082C503.195 239.617 504.185 239.137 505.367 239.569C507.853 240.478 509.458 241.992 510.213 244.472C510.605 245.759 510.995 246.417 510.197 247.688C509.865 248.216 509.181 248.74 508.73 249.174C508.11 249.77 508.366 249.493 507.799 250.3C509.201 252.35 511.232 252.739 513.538 253.363C514.174 254.432 514.522 254.92 515.841 255.252C516.274 255.361 516.872 255.301 517.32 255.276L518.34 254.181C518.734 262.283 518.269 270.461 516.225 278.348C514.866 278.854 513.477 279.379 512.02 279.498C509.897 279.672 508.768 278.704 507.218 277.431C507.258 276.425 506.853 275.079 506.685 274.061C505.784 275.225 505.135 275.36 503.785 275.777L503.102 276.948C492.497 272.463 481.317 266.967 473.307 258.533C457.826 242.23 458.741 222.704 458.456 201.75Q458.137 185.017 458.466 168.284C459.607 167.081 460.781 166.421 461.813 165.004ZM502.118 240.082L503.18 242.963C507.154 251.497 508.912 264.833 506.685 274.061C506.853 275.079 507.258 276.425 507.218 277.431C508.768 278.704 509.897 279.672 512.02 279.498C513.477 279.379 514.866 278.854 516.225 278.348C518.269 270.461 518.734 262.283 518.34 254.181L517.32 255.276C516.872 255.301 516.274 255.361 515.841 255.252C514.522 254.92 514.174 254.432 513.538 253.363C511.232 252.739 509.201 252.35 507.799 250.3C508.366 249.493 508.11 249.77 508.73 249.174C509.181 248.74 509.865 248.216 510.197 247.688C510.995 246.417 510.605 245.759 510.213 244.472C509.458 241.992 507.853 240.478 505.367 239.569C504.185 239.137 503.195 239.617 502.118 240.082Z"/>
	<path fill="#365041" transform="scale(0.855722 0.855722)" d="M466.567 207.392C470.038 210.731 474.949 212.311 479.002 214.856C490.265 221.926 494.513 229.807 502.118 240.082L503.18 242.963L502.677 243.163L501.818 242.334C500.09 243.743 498.484 245.99 496.113 246.307C495.195 246.43 492.999 244.567 492.084 243.971C487.015 240.668 481.487 238.148 476.464 234.814Q473.397 232.799 470.783 230.224C467.076 226.505 462.269 219.302 462.445 213.956C462.546 210.889 464.488 209.369 466.567 207.392Z"/>
	<path fill="#283F33" transform="scale(0.855722 0.855722)" d="M504.138 149.125C505.388 148.468 506.614 147.82 507.795 147.042L507.246 146.45C508.29 143.995 509.327 141.074 511.067 139.031C512.006 137.929 512.547 137.646 513.959 137.519C515.65 138.778 515.713 142.47 516.563 144.52C517.124 145.873 517.518 146.096 518.859 146.582C528.75 162.037 536.717 175.303 533.619 194.252C530.637 206.325 523.265 220.564 512.694 227.623C504.053 223.284 494.426 208.127 491.095 199.158C491.038 197.44 490.833 195.788 490.59 194.086L490.381 190.722C489.704 173.289 493.826 163.151 504.138 149.125Z"/>
	<defs>
		<linearGradient id="gradient_15" gradientUnits="userSpaceOnUse" x1="291.16705" y1="407.37402" x2="372.62372" y2="448.38287">
			<stop offset="0" stop-color="#7E662E"/>
			<stop offset="1" stop-color="#A97E45"/>
		</linearGradient>
	</defs>
	<path fill="url(#gradient_15)" transform="scale(0.855722 0.855722)" d="M403.034 264.97C406.393 263.181 410.754 261.146 414.625 262.208C415.562 263.162 415.312 263.095 415.332 264.345C410.1 270.459 398.727 275.983 392.027 280.999C383.75 287.195 375.844 294.758 368.719 302.264C354.236 317.519 341.685 333.552 330.003 351.001C328.467 353.295 326.647 355.408 325.179 357.746C321.933 362.913 319.459 368.905 316.588 374.332C301.045 403.709 290.274 432.003 285.804 465.172C284.964 471.41 284.165 477.801 284.004 484.095C283.832 490.834 284.247 497.603 283.97 504.334C283.806 508.312 283.242 512.266 283.052 516.245C282.397 529.929 282.379 544.988 283.435 558.632C284.411 571.23 286.583 584.572 290.542 596.596C292.26 601.815 294.671 606.822 296.328 612.046L295.694 612.818L294.955 610.737C292.548 612.876 294.521 618.061 290.346 618.461C289.209 611.722 285.832 605.184 283.601 598.714C281.013 591.206 279.024 583.058 277.565 575.252C275.535 564.397 275.817 554.266 275.393 543.38C275.221 538.964 274.641 534.568 274.477 530.148C273.782 511.501 274.163 492.181 276.521 473.645C277.947 462.435 280.917 451.532 282.445 440.367C288.691 414.256 299.42 387.552 312.383 364.056C326.778 337.962 353.367 302.892 375.935 283.737C378.669 281.8 382.055 279.854 384.273 277.365C390.496 273.174 396.634 268.891 403.034 264.97Z"/>
	<path fill="#8F9279" transform="scale(0.855722 0.855722)" d="M724.257 907.562C715.312 908.845 700.726 908.555 691.133 908.81Q655.521 909.962 619.891 910.175Q517.689 912.204 415.51 909.235C394.47 908.529 373.043 909.117 352.131 906.642C348.296 906.188 344.072 907.134 340.37 906.03L340.337 905.587C343.009 904.502 346.558 905.056 349.431 904.688C369.076 902.177 388.448 900.297 408.243 899.272C434.442 897.915 460.627 893.635 486.838 893.323C499.2 893.176 511.946 892.697 524.277 893.543C532.03 894.075 539.736 895.657 547.503 895.908C567.881 896.567 588.393 896.799 608.78 896.892C619.952 896.944 631.25 896.585 642.408 897.109C656.489 897.77 670.696 899.298 684.759 900.428Q716.009 902.902 747.334 904.104C751.162 904.224 755.149 905.129 758.917 905.828C747.631 906.224 735.495 908.859 724.257 907.562Z"/>
	<path fill="#182C27" transform="scale(0.855722 0.855722)" d="M505.498 409.183C508.839 408.761 513.665 407.765 516.877 408.86C519.233 413.685 517.765 426.828 517.66 432.739C517.419 446.166 518.061 460.039 517.109 473.386C516.391 483.446 514.124 493.711 512.397 503.664C511.236 510.354 510.392 517.141 509.027 523.787C507.636 530.563 505.795 537.239 504.33 543.998C501.281 558.057 498.068 572.339 493.374 585.956C484.601 611.405 473.927 636.206 464.909 661.556C462.645 667.921 460.915 674.478 458.784 680.889C457.087 685.992 454.84 690.928 453.282 696.069C452.059 700.102 451.473 704.382 450.123 708.347C444.062 709.053 433.311 712.47 427.847 710.541C427.254 709.639 427.112 709.516 427.375 708.397C428.38 704.106 432.127 699.231 434.219 695.29C436.017 691.903 437.502 688.273 438.842 684.682C441.859 676.594 445.906 667.02 447.102 658.534C447.776 653.756 446.801 648.715 446.379 643.937C444.298 620.352 438.633 598.976 426.895 578.287C420.018 566.167 409.109 549.045 395.316 544.612L395.246 544.079C397.499 544.278 399.487 545.353 401.671 545.903C414.186 549.053 423.289 554.219 431.63 564.202C448.369 584.238 454.965 609.148 456.3 634.797Q466.288 616.081 473.597 596.166L472.727 592.008C473.989 589.089 473.277 585.657 474.908 582.875L475.753 584.48C476.712 584.356 476.412 584.575 476.97 583.872C479.525 580.655 480.828 574.691 482.142 570.82C490.748 545.472 498.002 518.682 501.969 492.185C502.692 487.361 501.499 482.577 502.165 477.905C502.66 474.431 504.345 471.662 504.473 467.999C505.16 448.402 505.037 428.788 505.498 409.183Z"/>
	<defs>
		<linearGradient id="gradient_16" gradientUnits="userSpaceOnUse" x1="385.98349" y1="489.88394" x2="415.13541" y2="415.20837">
			<stop offset="0" stop-color="#6A7D66"/>
			<stop offset="1" stop-color="#96AB8F"/>
		</linearGradient>
	</defs>
	<path fill="url(#gradient_16)" transform="scale(0.855722 0.855722)" d="M380.652 485.098C365.526 467.227 358.664 430.187 350.361 407.784C347.913 401.179 342.617 390.66 338.815 384.716L339.08 384.288C339.948 384.751 340.769 385.211 341.611 385.724C343.531 386.892 346.12 387.221 348.218 388.074C350.976 389.194 353.655 390.6 356.349 391.869Q371.456 398.966 386.925 405.234C416.176 417.082 443.376 427.428 459.633 456.628C463.456 463.496 466.725 470.931 468.762 478.535C470.343 484.439 471.029 490.38 472.135 496.359C471.359 495.78 470.726 495.257 470.314 494.351C469.69 492.982 469.295 492.11 468.277 490.964C466.89 489.401 462.91 486.345 460.814 486.229L461.493 487.594C460.567 487.347 438.835 475.323 437.954 474.657C437.884 474.605 436.681 473.659 436.502 473.586C435.506 473.182 435.146 473.501 434.247 473.806C433.709 475.05 433.798 475.068 434.186 476.384L433.831 477.252C424.677 466.672 414.782 458.588 402.29 452.279C399.417 450.827 395.775 448.976 392.545 448.676C391.716 448.6 391.993 448.625 391.245 449.234C391.598 451.393 393.788 453.432 395.509 454.666C406.748 462.719 419.241 478.571 427.233 490.021C428.94 492.501 430.748 494.961 432.334 497.517C428.592 498.53 422.957 496.209 419.359 494.91C413.857 492.992 408.511 490.973 403.166 488.653C399.071 487.548 395.795 487.178 391.815 489.326C390.418 490.079 389.232 491.189 388.066 492.252C387.853 493.056 387.763 493.651 387.814 494.483C385.301 491.527 382.432 488.562 380.652 485.098Z"/>
	<path fill="#475D4C" transform="scale(0.855722 0.855722)" d="M427.233 490.021C428.94 492.501 430.748 494.961 432.334 497.517C428.592 498.53 422.957 496.209 419.359 494.91C421.944 494.66 424.688 495.618 427.263 495.995C428.315 495.12 428.116 494.836 428.275 493.455C427.891 492.638 427.643 491.889 427.448 491.011L427.233 490.021Z"/>
	<path fill="#475D4C" transform="scale(0.855722 0.855722)" d="M380.652 485.098C380.914 485.24 381.181 485.375 381.439 485.524C382.8 486.312 383.629 487.702 384.508 488.962C385.841 489.447 386.428 489.551 387.761 488.954C390.821 487.585 393.222 484.816 396.92 485.846C397.865 486.109 398.785 486.527 399.681 486.92L400.607 486.759C399.402 485.763 398.075 484.971 396.753 484.143C398.69 484.805 401.838 485.981 402.777 487.851C402.911 488.116 403.037 488.385 403.166 488.653C399.071 487.548 395.795 487.178 391.815 489.326C390.418 490.079 389.232 491.189 388.066 492.252C387.853 493.056 387.763 493.651 387.814 494.483C385.301 491.527 382.432 488.562 380.652 485.098Z"/>
	<defs>
		<linearGradient id="gradient_17" gradientUnits="userSpaceOnUse" x1="348.31543" y1="618.0672" x2="365.20969" y2="489.6442">
			<stop offset="0" stop-color="#546451"/>
			<stop offset="1" stop-color="#99B093"/>
		</linearGradient>
	</defs>
	<path fill="url(#gradient_17)" transform="scale(0.855722 0.855722)" d="M326.253 618.564C325.838 618.171 325.792 618.145 325.366 617.632C314.051 604.017 299.635 568.403 297.006 550.919C295.92 543.691 296.241 536.066 296.24 528.77C296.239 513.445 296.33 498.434 298.438 483.21C298.637 481.773 298.851 478.836 299.992 477.973C301.835 485.783 307.882 496.66 312.229 503.361C318.263 512.665 325.352 521.496 333.89 528.624C360.755 551.054 390.976 556.284 409.823 589.87C413.33 596.119 415.606 602.771 417.926 609.518L417.552 610.432C410.485 611.649 402.82 602.983 395.859 601.522C388.712 600.022 385.384 605.523 381.138 605.403C380.061 605.373 379.168 603.526 377.508 603.297C371.881 599.003 366.333 594.272 360.414 590.404C355.238 587.022 349.542 584.261 344.094 581.342C342.133 580.291 339.728 578.3 337.524 578.12L336.604 578.772C336.502 580.102 336.673 580.672 337.529 581.731C340.271 585.126 344.213 588.197 347.415 591.196C355.845 599.09 364.89 607.173 372.084 616.208L371.916 617.253L370.541 616.073C368.238 616.266 366.354 618.147 364.061 618.076C357.118 617.861 349.382 616.369 342.708 614.392C339.88 613.554 337.318 611.215 334.193 611.68C331.532 612.076 328.066 614.17 325.635 615.373L325.432 616.121L327.12 618.181C326.631 618.663 326.922 618.541 326.253 618.564Z"/>
	<defs>
		<linearGradient id="gradient_18" gradientUnits="userSpaceOnUse" x1="614.89264" y1="502.05374" x2="598.36829" y2="404.48676">
			<stop offset="0" stop-color="#627963"/>
			<stop offset="1" stop-color="#9CB294"/>
		</linearGradient>
	</defs>
	<path fill="url(#gradient_18)" transform="scale(0.855722 0.855722)" d="M534.634 511.983C533.286 505.693 534.604 497.112 536.157 490.919C544.641 457.072 565.849 433.622 598.005 420.596C611.502 415.128 625.659 411.596 639.358 406.718C646.717 404.097 653.885 400.722 661.047 397.6C667.615 394.737 674.724 392.3 680.815 388.534L681.49 388.11C677.807 397.136 675.184 406.93 672.083 416.205C662.924 443.607 651.923 470.031 632.904 492.178C626.628 492.821 621.634 485.283 614.49 485.677C606.927 486.095 586.131 492.261 580.594 487.987C579.951 487.489 580.064 487.188 579.931 486.456C580.68 485.509 581.285 484.536 581.913 483.508C582.001 483.394 582.086 483.279 582.176 483.167C589.313 474.296 628.774 448.303 630.322 445.43C630.501 445.097 630.437 444.683 630.494 444.31C629.955 443.722 629.869 443.346 629.008 443.28C625.338 443.001 619.548 446.658 616.264 448.215C594.579 458.497 578.95 467.901 561.665 484.767C552.3 493.904 542.93 504.431 536.796 516.04C536.138 515.862 535.521 515.462 534.916 515.148C534.377 513.912 534.566 514.016 534.904 512.8L534.634 511.983Z"/>
	<path fill="#182C27" transform="scale(0.855722 0.855722)" d="M277.779 785.408C270.081 778.12 262.606 770.543 255.027 763.128C246.95 755.226 238.712 747.414 231.14 739.021Q226.98 734.416 222.987 729.666Q218.993 724.916 215.17 720.027Q211.347 715.139 207.7 710.118Q204.053 705.097 200.586 699.95Q197.119 694.803 193.837 689.537Q190.554 684.27 187.461 678.891Q184.367 673.511 181.466 668.025Q178.565 662.539 175.86 656.954C172.647 650.243 168.952 643.557 166.3 636.608C161.782 624.767 156.96 612.273 153.589 600.081Q152.719 596.876 151.908 593.656Q151.097 590.435 150.345 587.201Q149.593 583.966 148.901 580.718Q148.208 577.47 147.575 574.21Q146.942 570.95 146.369 567.679Q145.796 564.408 145.283 561.127Q144.77 557.846 144.317 554.556Q143.864 551.266 143.472 547.968Q143.079 544.671 142.747 541.366Q142.415 538.062 142.143 534.752Q141.872 531.443 141.661 528.128Q141.45 524.814 141.3 521.496Q141.15 518.179 141.061 514.859Q140.972 511.54 140.943 508.219Q140.915 504.898 140.947 501.577Q140.98 498.256 141.073 494.937Q141.166 491.617 141.32 488.3Q141.474 484.982 141.689 481.669Q141.904 478.355 142.179 475.045Q142.455 471.736 142.791 468.432Q143.127 465.128 143.524 461.831Q143.92 458.534 144.377 455.244Q144.834 451.955 145.351 448.674Q145.868 445.394 146.445 442.124Q147.022 438.853 147.659 435.594Q148.296 432.335 148.992 429.087Q149.689 425.84 150.444 422.607Q151.2 419.373 152.015 416.153Q152.83 412.934 153.704 409.73Q154.578 406.526 155.51 403.339Q156.442 400.152 157.433 396.982Q158.424 393.812 159.472 390.661C162.868 380.542 165.926 370.17 170.35 360.449C186.639 324.658 206.457 289.062 232.63 259.444C242.019 248.82 252.667 238.959 262.886 229.127C266.783 225.378 279.511 212.732 283.384 211.597C284.995 211.124 287.083 212.552 288.378 213.364C288.765 216.183 287.956 217.458 286.314 219.692C278.323 230.559 265.86 241 256.252 250.562C248.52 258.257 241.712 266.538 234.808 274.967C231.279 279.276 226.833 283.987 224.218 288.911C216.663 297.358 211.201 307.371 205.529 317.127C194.193 336.628 183.456 356.881 175.401 377.988C171.177 389.056 167.985 400.422 164.853 411.823C162.913 418.886 160.55 425.943 159.215 433.152C157.162 444.243 155.388 455.93 154.338 467.168C153.748 473.483 154.318 480.229 153.045 486.433C152.385 493.326 150.376 504.189 152.477 510.881C152.458 520.779 153.786 531.06 154.767 540.924C155.165 544.927 155.22 548.957 155.664 552.958C156.979 564.822 159.357 577.145 162.144 588.734C165.881 604.273 171.417 618.921 177.595 633.626C191.955 667.802 208.298 696.928 234.194 723.813C235.704 725.381 237.463 726.842 239.412 727.829C244.536 730.472 248.62 735.067 253.848 737.458C257.142 741.168 259.956 745.836 263.074 749.767C268.814 757.004 274.858 763.171 281.392 769.654C282.855 771.105 284.918 772.855 286.002 774.614C286.383 775.232 286.412 775.659 286.199 776.333C285.133 779.693 280.797 783.672 277.779 785.408Z"/>
	<path fill="#182C27" transform="scale(0.855722 0.855722)" d="M275.084 830.731C282.591 825.542 290.678 821.638 298.837 817.604C308.401 812.875 317.771 808.372 327.983 805.155C374.931 790.366 431.062 795.903 478.323 806.862C483.371 808.033 488.284 809.828 493.311 811.114C499.037 812.579 504.886 813.519 510.622 814.942C530.104 819.772 549.782 824.803 569.81 826.755C597.272 829.431 626.262 829.047 653.676 826.162C665.559 824.911 677.512 820.868 689.498 821.022C675.041 829.986 658.874 837.299 642.691 842.508C623.609 848.649 598.327 853.467 578.368 855.49C573.625 855.971 568.825 855.836 564.072 856.197C558.704 856.604 553.062 857.705 547.697 856.904C539.693 855.71 531.555 851.167 524.448 847.515C524.476 848.14 524.536 848.818 524.472 849.446C524.354 850.583 524.222 851.154 523.338 851.93C522.093 851.777 521.518 851.006 520.674 850.163L520.284 849.767C520.102 849.995 519.951 850.252 519.738 850.451C518.737 851.385 513.989 846.555 512.022 846.406C512.054 847.05 513.262 848.165 513.707 848.7C511.057 849.559 500.661 845.663 496.907 845.013L495.356 846.332C504.394 850.416 514.197 851.08 523.533 854.299C539.522 859.812 552.591 870.601 566.977 879.026C570.251 880.943 574.631 881.659 577.607 883.814L577.314 884.385L579.885 885.529L580.029 886.087C578.897 886.942 577.699 887.611 576.525 888.398L576.512 889.653C567.035 888.856 555.602 885.653 547.132 881.293C542.19 878.749 537.596 875.539 532.732 872.847C527.733 870.08 522.507 867.736 517.515 864.951C514.059 863.023 510.786 860.668 507.225 858.944C501.06 855.959 496.865 857.875 490.573 858.39C487.72 858.623 484.769 858.288 481.926 858.044C466.347 856.71 451.067 853.64 435.799 850.365Q407.796 844.332 380.775 834.825Q366.922 829.855 353.282 824.328C349.425 822.757 345.734 820.8 341.871 819.276C338.233 817.84 334.477 816.803 330.792 815.513C329.619 815.103 328.185 814.196 326.969 814.114C319.019 813.582 285.288 827.137 275.084 830.731ZM428.468 824.116L429.898 824.571C443.582 827.35 458.324 830.54 471.303 835.741Q478.785 838.809 486.152 842.143C489.197 843.556 492.152 845.321 495.356 846.332L496.907 845.013C500.661 845.663 511.057 849.559 513.707 848.7C513.262 848.165 512.054 847.05 512.022 846.406C513.989 846.555 518.737 851.385 519.738 850.451C519.951 850.252 520.102 849.995 520.284 849.767L520.674 850.163C521.518 851.006 522.093 851.777 523.338 851.93C524.222 851.154 524.354 850.583 524.472 849.446C524.536 848.818 524.476 848.14 524.448 847.515C505.678 838.38 478.888 824.135 458.524 821.083C453.051 820.263 447.667 820.583 442.173 820.44C436.919 820.304 431.451 819.477 426.318 820.903C425.184 821.217 424.369 821.414 423.819 822.499C425.063 823.626 426.874 823.771 428.468 824.116Z"/>
	<path fill="#906D3A" transform="scale(0.855722 0.855722)" d="M771.848 273.713C772.229 273.922 772.558 274.072 772.88 274.373C774.846 276.203 776.368 280.37 777.505 282.806C787.693 304.64 794.499 328.056 799.129 351.638C799.807 355.094 801.075 358.465 801.439 361.977C802.297 370.238 802.207 378.696 802.419 386.999C802.663 396.546 803.448 406.281 802.909 415.809C802.279 426.944 800.098 438.163 798.095 449.131C788.748 500.305 770.083 544.098 737.022 584.526C731.424 591.371 725.141 597.506 718.898 603.75C665.57 657.093 604.694 677.116 531.917 688.822C520.759 690.617 509.735 693.032 498.474 694.169C494.688 694.81 489.052 696.835 485.462 696.062L485.139 695.414C488.593 688.901 494.79 684.551 500.591 680.232C514.25 670.066 530.394 660.974 546.181 654.526C560.533 648.663 575.396 644.218 589.863 638.703C592.807 637.581 595.556 636.053 598.476 634.898C613.441 628.981 628.331 623.578 642.558 615.886C686.693 592.025 727.386 553.181 751.122 508.766C766.063 480.808 775.175 451.486 781.999 420.693C784.254 410.517 786.626 400.06 787.666 389.68C788.28 383.551 788.012 377.164 788.029 371.003C788.082 351.519 787.347 332.635 783.582 313.444C780.941 299.981 775.857 286.846 771.848 273.713Z"/>
	<path fill="#7A5827" transform="scale(0.855722 0.855722)" d="M263.957 329.382C266.232 329.649 269.37 329.946 270.955 331.778C270.069 336.122 260.688 345.758 257.342 349.16C256.437 349.847 255.84 350.384 254.708 350.644C253.834 350.845 253.774 350.563 253.083 350.112C252.695 348.424 252.963 347.117 253.427 345.459C255.067 339.604 258.58 332.491 263.957 329.382Z"/>
	<path fill="#7A5827" transform="scale(0.855722 0.855722)" d="M220.014 452.318Q222.447 453.294 224.894 454.235C225.637 457.404 219.721 473.811 217.817 476.948C217.065 478.187 216.107 479.35 215.201 480.481C214.881 478.543 214.756 476.212 213.972 474.422L214.27 472.169C213.437 467.723 212.969 457.505 215.817 453.962C216.935 452.57 218.381 452.609 220.014 452.318Z"/>
	<path fill="#7A5827" transform="scale(0.855722 0.855722)" d="M360.868 268.884C362.86 268.847 364.919 268.109 366.839 267.599C360.454 278.986 354.129 288.446 340.879 292.159C337.437 293.123 333.897 293.559 330.359 294.015C327.862 293.862 325.237 294.005 322.728 294.005C319.891 293.793 316.985 293.215 314.179 292.725C311.652 292.284 310.153 291.824 308.645 289.683C307.916 287.034 309.59 284.606 310.744 282.293C311.785 281.396 312.674 279.873 313.606 278.817C316.841 275.153 320.198 272.744 324.451 270.389C327.237 272.093 328.745 271.367 331.826 271.123C337.783 271.999 351.297 272.752 356.882 270.953C358.257 270.51 359.63 269.621 360.868 268.884Z"/>
	<path fill="#7A5827" transform="scale(0.855722 0.855722)" d="M270.835 333.701C276.079 328.394 277.345 321.495 283.894 315.312C294.304 305.486 308.276 303.644 322.083 304.039C323.709 304.569 325.256 304.969 326.941 305.268C329.253 305.384 331.969 305.165 333.738 306.784C333.736 306.947 333.758 307.111 333.732 307.271C333.572 308.245 325.558 319.724 324.316 321.251C323.003 322.867 321.438 324.315 319.83 325.635C304.019 338.618 289.557 335.5 270.835 333.701ZM311.008 308.201C307.874 308.566 301.314 308.76 298.858 310.908C301.86 312.655 307.932 311.94 311.303 311.88C314.987 311.807 319.642 312.265 322.851 310.138L322.921 309.374C319.965 307.425 314.393 307.916 311.008 308.201Z"/>
	<path fill="#7A5827" transform="scale(0.855722 0.855722)" d="M249.459 286.912C249.466 286.857 249.47 286.801 249.48 286.746C252.042 273.324 259.407 265.174 269.959 256.885C271.565 255.623 272.153 255.301 274.241 255.226C273.833 268.528 279.824 282.074 277.133 295.251C275.431 302.109 270.924 319.35 263.896 322.391C262.672 322.92 261.692 322.877 260.497 322.329C255.758 320.158 252.043 311.552 250.654 306.838C250.114 305.005 249.524 302.873 249.462 300.966C249.012 296.249 249.154 291.634 249.459 286.912Z"/>
	<path fill="#7A5827" transform="scale(0.855722 0.855722)" d="M274.42 398.751C276.431 397.911 279.171 396.288 281.289 396.557C281.451 397.634 281.255 398.227 280.892 399.243L278.977 405.986C274.803 422.947 269.002 435.696 253.385 445.076C246.382 449.281 235.355 452.976 227.316 454.29L226.558 453.614C227.359 451.191 227.661 448.457 228.136 445.942Q229.796 437.822 232.84 430.114C234.978 426.016 237.25 421.78 239.935 418.017C240.028 417.836 240.112 417.649 240.216 417.474C245.555 408.405 258.168 403.103 267.902 400.612L274.42 398.751ZM266.141 405.583C257.665 408.913 251.681 411.373 245.229 418.116C243.89 419.516 242.207 421.012 241.274 422.719C242.515 421.953 243.698 421.226 244.796 420.257C248.919 417.545 253.083 414.98 257.726 413.246C261.416 411.868 265.538 411.082 268.976 409.15C270.287 408.413 271.253 407.84 271.704 406.378C270.622 405.368 269.709 405.356 268.254 405.426C267.549 405.46 266.844 405.523 266.141 405.583Z"/>
	<path fill="#7A5827" transform="scale(0.855722 0.855722)" d="M246.337 388.786C246.964 377.628 252.593 366.698 260.946 359.328C269.196 352.047 279.03 347.794 290.054 347.31C295.593 347.067 301.124 347.186 306.591 346.132C294.871 365.311 291.825 381.132 267.081 387.184C260.246 388.856 253.419 389.339 246.408 389.254C242.168 393.65 234.784 411.316 230.112 411.892C229.061 410.832 229.338 409.781 229.246 408.336C230.091 402.352 229.835 393.367 234.27 388.744C235.775 387.175 237.31 387.206 239.332 387.229C241.69 387.933 243.904 388.417 246.337 388.786ZM281.646 352.083C274.765 352.741 264.755 361.276 259.128 365.378C263.332 363.506 267.573 361.557 271.862 359.892L272.502 359.634C279.389 356.924 289.203 358.092 294.987 354.502L295.014 353.784C290.626 351.787 286.173 352.892 281.646 352.083Z"/>
	<path fill="#182C27" transform="scale(0.855722 0.855722)" d="M656.945 339.233C655.852 339.313 654.764 339.375 653.668 339.382C643.397 339.444 634.213 335.358 626.935 328.212C619.375 320.79 613.881 308.637 613.74 297.998C615.797 294.616 613.669 293.314 614.155 289.993C614.894 284.937 617.081 279.988 619.534 275.549C627.771 260.646 639.655 253.539 655.762 249.079C675.008 243.751 697.59 250.815 714.421 260.437C720.05 263.656 725.274 268.45 729.896 272.961C745.699 288.388 756.84 306.092 762.768 327.473C774.296 369.058 770.352 404.081 759.01 444.966C757.647 449.877 756.455 454.901 754.798 459.723C752.561 466.233 749.52 472.542 746.614 478.776C737.955 497.346 728.259 513.75 715.86 530.063C712.608 534.341 709.505 538.868 705.973 542.916C703.271 546.012 700.132 548.704 697.279 551.658C691.059 558.096 684.964 564.722 678.237 570.646C667.544 580.063 644.146 596.144 631.535 602.664C623.533 606.801 614.849 609.853 606.476 613.178C597.073 616.914 587.737 620.907 578.233 624.371C572.192 626.573 565.944 628.172 559.892 630.342C537.794 638.268 512.556 650.819 494.244 665.398C488.815 669.72 482.945 673.933 478.56 679.359C474.541 684.33 472.705 690.066 469.54 695.496C468.386 697.475 466.676 700.401 464.34 701.027L463.663 700.573C463.514 699.934 463.448 699.78 463.452 699.032C463.508 688.154 469.642 673.124 474.079 663.301C484.623 639.957 494.749 626.359 516.14 611.678C521.863 607.751 527.587 603.58 533.702 600.297C550.351 591.36 568.924 586.092 586.329 578.921C615.717 566.812 638.744 554.822 663.148 534.097C693.537 508.29 720.886 466.925 733.658 429.25C738.293 415.575 741.556 399.684 742.72 385.269C743.57 374.745 743.12 363.742 742.236 353.233C741.764 347.632 741.724 341.804 740.816 336.268C738.038 319.326 729.295 300.52 718.137 287.623C706.745 274.455 696.252 266.996 679.406 263.009C675.78 262.151 672.152 261.195 668.422 260.955C657.982 260.282 645.238 265.216 637.469 272.092C631.133 277.701 625.834 287.125 625.525 295.68C625.202 304.581 630.757 314.566 636.675 320.985C642.204 326.981 648.45 329.305 656.404 329.596C655.741 331.36 656.319 338.165 655.758 338.422L654.821 338.302L654.566 338.633C655.377 338.976 656.074 339.115 656.945 339.233Z"/>
	<defs>
		<linearGradient id="gradient_19" gradientUnits="userSpaceOnUse" x1="587.01672" y1="817.36163" x2="525.51013" y2="352.44421">
			<stop offset="0" stop-color="#132522"/>
			<stop offset="1" stop-color="#2D413A"/>
		</linearGradient>
	</defs>
	<path fill="url(#gradient_19)" transform="scale(0.855722 0.855722)" d="M826.299 297.417C832.357 305.383 841.84 316.669 845.316 325.835C853.629 339.614 860.204 354.571 866.107 369.507Q867.397 372.721 868.625 375.96Q869.852 379.198 871.018 382.46Q872.183 385.722 873.285 389.005Q874.387 392.289 875.426 395.593Q876.464 398.897 877.439 402.22Q878.414 405.544 879.325 408.885Q880.235 412.227 881.082 415.585Q881.928 418.944 882.709 422.318Q883.49 425.692 884.206 429.081Q884.923 432.47 885.573 435.871Q886.224 439.273 886.809 442.687Q887.394 446.101 887.914 449.525Q888.433 452.949 888.886 456.383Q889.339 459.817 889.726 463.259Q890.113 466.7 890.434 470.149Q890.755 473.598 891.009 477.052Q891.263 480.506 891.45 483.964Q891.638 487.423 891.759 490.884Q891.88 494.345 891.934 497.809Q891.988 501.272 891.976 504.735Q891.963 508.198 891.884 511.661Q891.805 515.124 891.659 518.584Q891.513 522.044 891.301 525.501Q891.088 528.958 890.809 532.411Q890.53 535.863 890.184 539.309Q889.839 542.755 889.427 546.194Q889.015 549.633 888.537 553.063Q888.059 556.494 887.516 559.914Q886.972 563.335 886.362 566.744Q885.752 570.154 885.077 573.551Q884.402 576.948 883.661 580.331Q882.921 583.714 882.115 587.083C863.636 661.836 824.435 734.746 756.764 775.571C724.531 795.017 687.818 804.818 650.809 809.916C644.181 810.829 637.378 812.038 630.712 812.466C622.857 812.971 614.839 812.593 606.954 812.731C601.538 812.825 596.026 813.185 590.616 812.913C587.139 812.737 583.702 812.149 580.234 811.93C578.241 811.804 575.701 812.146 573.79 811.681C573.16 811.528 572.848 811.165 572.309 810.876C570.287 809.796 562.65 809.579 559.926 809.187Q542.568 806.747 525.372 803.35C502.766 798.917 480.62 791.908 457.971 787.489C443.182 784.603 428.152 783.497 413.128 782.875C407.925 782.659 402.738 781.896 397.533 781.859C372.503 781.678 340.663 785.942 317.369 794.96C305.691 799.48 289.554 808.435 280.405 817.209C269.6 827.57 254.742 849.728 241.116 856.184C253.875 826.95 280.077 802.949 304.74 783.642C308.248 784.073 311.195 783.407 314.513 782.291L317.081 780.216C321.228 779.845 330.497 772.597 334.783 770.41C344.034 765.691 353.213 762.116 363.124 759C371.878 755.511 382.244 754.501 391.543 753.266C397.768 752.439 404.109 751.421 410.369 750.991C437.413 749.135 467.546 753.234 494.112 758.074C499.942 759.136 505.658 760.833 511.445 762.112C516.065 763.134 520.777 763.757 525.445 764.516C541.363 767.104 557.96 767.459 573.66 770.994C580.361 772.503 588.495 771.939 595.391 771.938C640.992 771.937 691.17 758.739 729.768 734.168C779.733 702.361 817.068 654.855 839.08 600.068C842.518 591.511 845.244 582.74 848.049 573.961C851.573 562.931 855.724 551.435 857.906 540.071C860.351 527.335 861.118 513.932 862.393 501.021C863.86 486.158 865.94 470.513 869.164 455.94C869.882 454.521 870.167 453.429 871.522 452.561C873.45 453.424 874.523 456.874 875.897 458.579C875.668 454.988 875.182 451.452 874.688 447.89C874.353 442.367 869.767 438.793 867.843 433.761C864.613 425.317 864.022 414.543 859.389 406.848C858.463 409.267 859.873 413.889 859.333 416.95C859.293 417.179 859.243 417.406 859.198 417.634C859.399 417.164 858.579 416.746 858.573 416.235C858.493 410.232 858.05 404.3 857.408 398.333L856.858 397.975C855.836 406.681 858.175 417.541 856.348 425.843C856.278 426.161 856.197 426.475 856.122 426.791C855.501 405.656 857.593 387.444 851.589 366.49C848.607 356.083 841.103 344.302 839.717 333.787L840.386 332.974C839.316 329.927 836.894 326.882 835.326 323.997C832.583 314.485 826.979 307.935 826.299 297.417ZM869.164 455.94C865.94 470.513 863.86 486.158 862.393 501.021C861.118 513.932 860.351 527.335 857.906 540.071C855.724 551.435 851.573 562.931 848.049 573.961C845.244 582.74 842.518 591.511 839.08 600.068C817.068 654.855 779.733 702.361 729.768 734.168C691.17 758.739 640.992 771.937 595.391 771.938C588.495 771.939 580.361 772.503 573.66 770.994C557.96 767.459 541.363 767.104 525.445 764.516C520.777 763.757 516.065 763.134 511.445 762.112C505.658 760.833 499.942 759.136 494.112 758.074C467.546 753.234 437.413 749.135 410.369 750.991C404.109 751.421 397.768 752.439 391.543 753.266C382.244 754.501 371.878 755.511 363.124 759C353.213 762.116 344.034 765.691 334.783 770.41C330.497 772.597 321.228 779.845 317.081 780.216L314.513 782.291C317.827 781.977 321.367 780.684 324.609 779.863L347.089 774.113C369.613 768.546 395.964 764.809 419.19 765.454C445.97 766.199 471.874 769.985 498.126 775.014C509.642 777.22 521.024 780.008 532.598 781.929C563.494 787.059 600.293 789.84 631.438 786.233C659.217 783.017 687.72 774.227 712.996 762.304C718.488 759.713 723.714 756.649 729.074 753.806C739.654 748.194 750.457 742.236 760.075 735.05C764.136 732.015 767.672 728.301 771.488 724.971C787.374 711.11 797.159 701.093 810.266 684.538C832.757 656.128 853.203 610.887 862.819 575.883C867.401 559.199 870.385 542.338 872.988 525.254C875.636 507.874 878.389 487.55 877.428 469.96C877.22 466.14 876.339 462.377 875.897 458.579C874.523 456.874 873.45 453.424 871.522 452.561C870.167 453.429 869.882 454.521 869.164 455.94Z"/>
	<defs>
		<linearGradient id="gradient_20" gradientUnits="userSpaceOnUse" x1="836.11121" y1="312.49887" x2="825.03809" y2="305.27228">
			<stop offset="0" stop-color="#425B5C"/>
			<stop offset="1" stop-color="#557576"/>
		</linearGradient>
	</defs>
	<path fill="url(#gradient_20)" transform="scale(0.855722 0.855722)" d="M826.299 297.417C832.357 305.383 841.84 316.669 845.316 325.835C841.17 324.188 839.783 313.384 835.215 312.305C834.249 313.244 833.889 315.659 833.949 316.994C834.179 322.167 840.918 328.815 841.065 333.171L840.652 333.309L840.386 332.974C839.316 329.927 836.894 326.882 835.326 323.997C832.583 314.485 826.979 307.935 826.299 297.417Z"/>
	<defs>
		<linearGradient id="gradient_21" gradientUnits="userSpaceOnUse" x1="685.32074" y1="756.7121" x2="470.85815" y2="344.77921">
			<stop offset="0" stop-color="#556A55"/>
			<stop offset="1" stop-color="#708772"/>
		</linearGradient>
	</defs>
	<path fill="url(#gradient_21)" transform="scale(0.855722 0.855722)" d="M749.509 222.884C746.939 218.082 740.169 212.176 735.629 209.007C735.372 208.828 735.112 208.654 734.853 208.478L734.921 207.619C735.842 206.705 736.042 206.594 737.415 206.493C742.012 206.158 744.743 209.044 747.797 211.752C749.786 213.515 751.943 214.894 753.902 216.763L755.1 216.612C762.99 223.842 798.261 256.765 801.616 265.566C809.825 275.997 819.067 286.316 826.299 297.417C826.979 307.935 832.583 314.485 835.326 323.997C836.894 326.882 839.316 329.927 840.386 332.974L839.717 333.787C841.103 344.302 848.607 356.083 851.589 366.49C857.593 387.444 855.501 405.656 856.122 426.791C856.197 426.475 856.278 426.161 856.348 425.843C858.175 417.541 855.836 406.681 856.858 397.975L857.408 398.333C858.05 404.3 858.493 410.232 858.573 416.235C858.579 416.746 859.399 417.164 859.198 417.634C859.243 417.406 859.293 417.179 859.333 416.95C859.873 413.889 858.463 409.267 859.389 406.848C864.022 414.543 864.613 425.317 867.843 433.761C869.767 438.793 874.353 442.367 874.688 447.89C875.182 451.452 875.668 454.988 875.897 458.579C874.523 456.874 873.45 453.424 871.522 452.561C870.167 453.429 869.882 454.521 869.164 455.94C865.94 470.513 863.86 486.158 862.393 501.021C861.118 513.932 860.351 527.335 857.906 540.071C855.724 551.435 851.573 562.931 848.049 573.961C845.244 582.74 842.518 591.511 839.08 600.068C817.068 654.855 779.733 702.361 729.768 734.168C691.17 758.739 640.992 771.937 595.391 771.938C588.495 771.939 580.361 772.503 573.66 770.994C557.96 767.459 541.363 767.104 525.445 764.516C520.777 763.757 516.065 763.134 511.445 762.112C505.658 760.833 499.942 759.136 494.112 758.074C467.546 753.234 437.413 749.135 410.369 750.991C404.109 751.421 397.768 752.439 391.543 753.266C382.244 754.501 371.878 755.511 363.124 759C353.213 762.116 344.034 765.691 334.783 770.41C330.497 772.597 321.228 779.845 317.081 780.216L314.513 782.291C311.195 783.407 308.248 784.073 304.74 783.642L306.896 780.204C320.659 766.059 345.223 751.462 364.176 745.741C366.658 744.179 370.502 743.254 373.329 742.303C390.264 736.605 407.381 733.181 424.731 729.19C440.411 725.584 455.489 719.676 471.312 716.634C478.886 715.178 486.588 714.347 494.193 713.046C500.075 712.04 505.856 710.474 511.738 709.503C532.186 706.13 552.831 703.49 573.149 699.327Q579.547 698.068 585.89 696.553Q592.233 695.039 598.51 693.271Q604.786 691.503 610.987 689.485Q617.188 687.466 623.303 685.201Q629.418 682.936 635.437 680.427Q641.456 677.918 647.37 675.169Q653.283 672.421 659.082 669.438Q664.881 666.455 670.555 663.241C695.239 649.519 717.17 633.23 737.042 613.093C746.693 603.313 755.142 592.255 763.038 581.039Q767.31 574.973 771.282 568.707Q775.254 562.441 778.917 555.99Q782.581 549.538 785.927 542.917Q789.273 536.295 792.293 529.519Q795.314 522.743 798.002 515.828Q800.69 508.913 803.04 501.876Q805.389 494.839 807.395 487.697Q809.4 480.554 811.056 473.322C812.468 467.005 813.173 460.52 814.247 454.14C816.178 442.666 818.344 431.044 819.235 419.431C819.943 410.195 819.679 400.571 819.576 391.3C819.382 373.907 815.458 346.121 811.072 329.114C809.714 323.847 807.561 318.82 805.873 313.654C804.51 309.485 803.517 305.18 802.035 301.052C796.281 285.021 788.592 268.762 778.806 254.763C776.108 250.904 772.497 247.38 769.34 243.886C762.886 236.745 756.402 229.607 749.509 222.884ZM830.167 331.349C829.244 332.507 828.679 333.39 827.168 333.779L825.209 333.184C825.36 341.714 829.526 350.56 831.481 358.836C834.682 372.382 837.516 387.729 838.602 401.545C839.084 407.665 838.848 413.946 838.848 420.085C838.847 428.731 839.048 437.495 838.402 446.117C837.421 459.194 834.896 472.129 832.394 484.978C829.999 497.278 827.735 509.628 824.321 521.696Q823.057 526.121 821.658 530.506Q820.26 534.89 818.728 539.23Q817.196 543.57 815.532 547.861Q813.868 552.152 812.074 556.39Q810.28 560.628 808.358 564.809Q806.435 568.991 804.385 573.111Q802.336 577.232 800.162 581.288Q797.988 585.345 795.69 589.332Q793.393 593.32 790.975 597.236Q788.557 601.152 786.021 604.992Q783.485 608.833 780.832 612.594Q778.18 616.354 775.414 620.033Q772.648 623.711 769.771 627.303Q766.894 630.895 763.908 634.397Q760.923 637.9 757.832 641.31Q754.741 644.719 751.547 648.033C710.772 690.227 655.121 716.883 597.168 724.676C583.51 726.513 568.911 727.135 555.158 727.355C544.987 727.518 534.869 728.112 524.705 728.408C503.915 729.013 483.217 728.76 463.337 735.785C467.91 737.502 472.047 738.724 476.898 739.308C483.494 740.103 490.118 739.966 496.737 740.291C514.209 741.15 531.632 741.229 549.13 741.233C568.741 741.238 590.316 742.455 609.625 739.263C615.317 738.321 621.026 736.656 626.634 735.295C646.837 730.392 665.903 724.413 684.86 715.819C754.593 684.206 804.666 621.92 830.98 551.065C834.734 540.958 838.878 528.422 841.478 518.042C843.145 511.385 844.322 504.584 845.831 497.887C847.096 492.27 848.76 486.679 849.759 481.014C850.952 474.243 851.589 467.307 852.603 460.496C854.276 449.253 856.118 438.192 856.122 426.791C855.501 405.656 857.593 387.444 851.589 366.49C848.607 356.083 841.103 344.302 839.717 333.787L840.386 332.974C839.316 329.927 836.894 326.882 835.326 323.997L833.037 322.638C832.241 322.993 832.109 323.159 831.778 323.965C830.865 326.186 831.026 328.963 830.167 331.349Z"/>
	<path fill="#D1D4C9" transform="scale(0.855722 0.855722)" d="M869.164 455.94C869.22 453.343 868.715 449.883 870.169 447.697C871.92 447.058 872.888 447.517 874.688 447.89C875.182 451.452 875.668 454.988 875.897 458.579C874.523 456.874 873.45 453.424 871.522 452.561C870.167 453.429 869.882 454.521 869.164 455.94Z"/>
	<path fill="#283F33" transform="scale(0.855722 0.855722)" d="M306.896 780.204C320.659 766.059 345.223 751.462 364.176 745.741C363.981 745.936 363.791 746.137 363.59 746.326C361.502 748.301 356.649 749.639 353.932 750.853C348.234 753.4 323.473 764.593 322.947 770.436C323.351 771.61 324.161 772.486 325.317 772.989C326.917 773.686 327.648 773.338 329.128 772.585C335.051 769.568 356.826 756.97 362.589 758.783C362.773 758.841 362.946 758.927 363.124 759C353.213 762.116 344.034 765.691 334.783 770.41C330.497 772.597 321.228 779.845 317.081 780.216L314.513 782.291C311.195 783.407 308.248 784.073 304.74 783.642L306.896 780.204Z"/>
	<path fill="#365041" transform="scale(0.855722 0.855722)" d="M304.74 783.642L306.896 780.204C310.665 780.944 313.346 780.409 317.081 780.216L314.513 782.291C311.195 783.407 308.248 784.073 304.74 783.642Z"/>
	<path fill="#D1D4C9" transform="scale(0.855722 0.855722)" d="M830.167 331.349C827.452 330.785 826.519 329.973 823.775 330.85Q816.419 310.894 808.52 291.146C806.196 285.372 803.023 279.654 801.278 273.687C800.386 270.637 800.094 268.406 801.616 265.566C809.825 275.997 819.067 286.316 826.299 297.417C826.979 307.935 832.583 314.485 835.326 323.997L833.037 322.638C832.241 322.993 832.109 323.159 831.778 323.965C830.865 326.186 831.026 328.963 830.167 331.349Z"/>
</svg>
