<?xml version="1.0" encoding="utf-8" ?>
<svg xmlns="http://www.w3.org/2000/svg" xmlns:xlink="http://www.w3.org/1999/xlink" width="1024" height="1024">
	<path fill="#313C34" d="M512.162 231.102C516.081 231.573 520.022 233.531 522.629 236.529C528.107 242.829 526.805 252.78 526.258 260.499C525.423 272.278 524.49 274.843 515.51 282.603C514.98 282.894 514.616 282.839 514.024 282.852C510.818 279.221 507.369 276.097 505.163 271.704C501.596 264.602 500.575 247.365 503.361 239.808C505.018 235.313 507.861 232.968 512.162 231.102Z"/>
	<path fill="#313C34" d="M511.813 160.872Q512.365 160.788 512.92 160.729C516.233 160.397 519.284 162.762 521.688 164.817C525.816 168.344 529.58 172.629 533.406 176.492C538.379 181.512 543.637 186.418 548.287 191.739C553.673 197.902 576.853 227.306 577.296 233.478C574.354 236.002 570.56 237.783 567.275 239.864C563.644 242.165 560.376 244.874 557.077 247.616C553.855 242.988 551.317 237.881 548.157 233.2C541.208 222.908 526.606 205.516 516.27 199.056C515.51 198.484 515.046 198.264 514.177 197.935C504.221 200.739 486.583 222.462 480.179 231.445C477.101 235.762 474.501 240.58 471.783 245.137C465.159 240.986 458.002 236.192 450.429 234.119C454.122 227.502 457.721 220.824 461.47 214.24C467.389 203.845 501.126 163.803 511.813 160.872Z"/>
	<path fill="#5E7552" d="M282.021 210.656C291.353 210.09 300.772 211.587 310 212.844Q340.749 217.194 371.069 223.907C376.156 224.999 381.052 226.916 386.043 228.369C390.83 229.763 395.725 230.709 400.486 232.22C420.87 238.683 439.086 248.309 457.19 259.526C467.237 265.751 476.51 271.699 484.818 280.246C494.829 290.545 501.68 302.313 509.345 314.268C508.889 316.294 508.768 318.096 508.802 320.171L508.425 319.99C507.954 318.08 507.908 317.164 508.555 315.293C508.109 314.165 507.709 313.262 507.01 312.257C505.36 314.343 506.592 320.366 506.902 322.996C507.606 328.963 507.773 334.689 507.536 340.694C507.216 348.815 505.256 356.664 504.587 364.716C504.056 371.1 504.478 377.534 504.355 383.926C504.236 390.032 503.717 396.065 503.753 402.189C503.764 404.081 504.183 408.189 502.769 409.607C502.31 410.067 502.366 410.017 501.942 410.023C504.502 419.234 502.504 428.607 503.595 437.924C503.855 445.544 503.601 453.194 503.472 460.817C489.459 460.287 475.385 462.155 461.437 459.714C448.57 457.462 435.197 454.288 423.093 449.319C418.318 447.358 413.882 444.489 409.384 441.971C389.588 430.886 369.221 418.424 353.189 402.206C344.02 392.93 335.609 381.46 328.138 370.751C319.441 358.286 311.831 344.328 306.001 330.284C297.686 310.251 292.997 288.549 287.284 267.68C283.687 254.541 278.992 241.566 276.609 228.128C276.05 224.977 275.745 221.826 276.385 218.657C277.145 214.897 278.846 212.719 282.021 210.656ZM342.261 268.729C339.787 270.979 337.702 273.194 336.164 276.217C336.475 281.335 337.689 285.302 341.727 288.784C348.074 294.255 362.488 296.918 370.739 300.255C376.019 302.392 381.167 305.307 386.182 308.001C417.301 324.72 446.122 352.526 464.655 382.514C466.666 385.767 468.874 388.956 470.597 392.372C473.681 398.487 475.919 405.144 478.654 411.433C480.534 415.756 482.925 419.838 484.75 424.18C486.422 428.159 487.467 432.5 489.456 436.312C489.791 436.955 489.661 436.653 489.86 437.474C491.386 438.439 492.216 438.459 493.989 438.441L496.473 438.414C498.815 438.097 501.235 438.064 503.595 437.924C502.504 428.607 504.502 419.234 501.942 410.023C499.72 403.755 496.474 397.75 493.569 391.775Q492.435 389.475 491.252 387.2Q490.07 384.924 488.84 382.674Q487.61 380.424 486.333 378.2Q485.057 375.976 483.733 373.78Q482.41 371.583 481.042 369.415Q479.673 367.246 478.259 365.107Q476.845 362.968 475.387 360.858Q473.928 358.749 472.426 356.671Q470.924 354.593 469.378 352.547Q467.833 350.5 466.245 348.487Q464.657 346.473 463.027 344.494Q461.397 342.514 459.726 340.569Q458.055 338.624 456.344 336.714Q454.632 334.804 452.881 332.931Q451.13 331.057 449.341 329.221Q447.551 327.385 445.723 325.586Q443.895 323.788 442.03 322.028Q440.164 320.269 438.263 318.548Q436.361 316.828 434.424 315.148Q432.486 313.468 430.514 311.829Q428.542 310.19 426.536 308.592Q424.53 306.995 422.491 305.44Q420.452 303.885 418.381 302.373Q416.31 300.861 414.208 299.393Q412.105 297.924 409.973 296.501Q407.84 295.077 405.678 293.698Q403.516 292.319 401.325 290.986Q399.135 289.652 396.917 288.365Q394.699 287.078 392.455 285.838Q390.21 284.597 387.94 283.404Q385.671 282.211 383.376 281.066Q381.082 279.921 378.764 278.824C372.181 275.691 360.653 269.772 353.784 268.805C350.118 268.288 345.99 268.839 342.261 268.729Z"/>
	<path fill="#9B9D71" d="M489.86 437.474C491.386 438.439 492.216 438.459 493.989 438.441L496.473 438.414C498.233 438.548 501.542 438.091 502.927 439.022L502.943 442.331L503.113 441.499C501.028 442.054 497.675 442.38 496.101 443.838L496.113 445.178L495.363 445.708C494.03 445.57 493.338 445.477 492.386 444.461C490.538 442.485 489.866 440.102 489.86 437.474Z"/>
	<defs>
		<linearGradient id="gradient_0" gradientUnits="userSpaceOnUse" x1="668.51184" y1="486.31802" x2="393.62112" y2="345.88818">
			<stop offset="0" stop-color="#2D382E"/>
			<stop offset="1" stop-color="#44533E"/>
		</linearGradient>
	</defs>
	<path fill="url(#gradient_0)" d="M509.345 314.268C510.818 316.042 512.696 318.719 515.147 319.11C516.951 319.398 518.71 318.364 519.979 317.179C525.151 312.347 527.948 304.442 532.138 298.724C538.435 290.134 549.12 278.512 556.92 271.337C584.146 246.296 626.547 231.346 662.24 223.376C674.465 220.646 686.875 218.853 699.227 216.808C705.057 215.842 710.868 214.487 716.72 213.715C721.686 213.06 726.719 212.857 731.704 212.377C735.865 211.977 740.053 211.353 744.236 211.352C744.424 211.352 744.612 211.356 744.801 211.357C747.481 213.099 750.268 215.025 750.938 218.373C752.991 228.637 746.226 244.554 743.4 254.652C737.222 276.724 732.096 299.435 724.385 321.038C716.738 342.459 705.619 363.916 692.276 382.375C685.421 391.859 677.395 400.095 669.055 408.251C661.898 415.251 654.655 422.934 646.662 428.964C642.109 432.4 636.827 435.026 631.864 437.83C611.574 449.298 592.632 457.383 569.394 461.038C565.328 461.678 545.586 466.026 543.411 464.901C542.376 461.238 544.036 455.562 544.529 451.678C545.209 446.323 545.375 440.887 546.29 435.566C549.023 419.679 556.135 403.463 563.941 389.49C581.94 357.272 616.143 320.517 648.827 303.079C659.021 297.641 669.868 294.43 680.491 290.093C686.289 287.726 690.785 280.866 689.23 274.497C688.758 272.565 687.248 270.857 686.058 269.312C679.311 266.297 672.417 268.109 665.828 270.64C632.545 283.425 596.401 309.66 573.481 336.927C568.184 343.228 563.814 350.249 559.153 357.021C552.562 366.596 546.3 375.52 541.596 386.219C539.358 391.311 536.613 396.534 534.756 401.741C533.441 405.425 532.881 409.413 531.431 413.033C529.685 417.389 527.331 421.049 526.461 425.75C525.122 432.994 525.781 440.423 525.661 447.748C525.541 455.118 524.846 462.444 524.902 469.829C524.975 479.575 525.842 489.275 525.845 499.043C525.846 505.357 524.197 538.296 525.585 541.941C525.677 542.184 525.832 542.399 525.956 542.628C533.071 543.223 541.239 540.915 548.03 538.949Q552.179 537.785 556.26 536.403Q560.341 535.022 564.344 533.427Q568.346 531.831 572.259 530.027Q576.171 528.222 579.983 526.214Q583.795 524.205 587.496 521.998Q591.196 519.791 594.775 517.391Q598.354 514.991 601.8 512.406Q605.247 509.821 608.553 507.057C612.64 503.583 616.406 499.709 620.361 496.085C625.847 491.057 631.558 486.229 636.527 480.664C641.714 474.855 646.769 467.648 651.274 461.26C655.614 455.105 658.02 447.077 663.212 441.625C665.977 438.722 669.526 437.132 673.561 437.375C677.439 437.609 681.672 438.996 684.307 441.977C686.296 444.225 687.226 447.294 687.005 450.269C686.516 456.844 681.035 464.31 677.561 469.822C671.992 478.661 666.154 487.997 659.781 496.285C648.543 510.901 634.676 523.117 620.439 534.689C598.152 552.805 565.71 564.523 537.85 570.564C536.076 570.948 527.103 572.396 526.231 573.179C526.069 573.325 525.827 574.275 525.817 574.335C524.853 579.877 525.961 586.745 525.931 592.432C525.874 603.43 524.931 614.346 525.117 625.373C525.516 649.079 526.248 672.738 525.12 696.429C524.895 701.139 525.346 706.105 524.676 710.761C524.296 713.404 523.738 715.927 521.641 717.75C518.842 720.183 515.129 720.438 511.629 720.044L510.946 719.961C507.891 717.941 504.879 715.485 504.047 711.723C502.31 703.875 503.417 682.78 503.419 673.73L503.556 608.452C503.669 594.982 504.113 581.514 503.983 568.044C503.812 567.981 503.642 567.916 503.47 567.855C493.243 564.232 482.237 563.361 471.967 559.507C457.286 553.997 442.082 547.872 428.534 539.966C419.823 534.883 411.161 528.966 403.295 522.657C388.426 510.732 358.806 483.755 350.506 467.364C350.431 467.216 350.362 467.065 350.291 466.916C349.105 463.328 346.371 459.978 344.872 456.353C344.788 456.153 344.707 455.952 344.621 455.753C344.115 454.589 344.429 455.275 343.835 454.2C342.472 451.736 341.396 447.454 342.147 444.683C342.682 442.706 344.066 441.32 345.823 440.352C349.023 438.588 355.848 435.523 359.474 436.584C365.578 438.371 381.779 465.467 387.817 472.103C393.407 478.248 400.734 485.604 407.081 490.968C418.982 501.026 441.084 515.571 455.19 522.185C465.74 527.131 476.165 530.556 487.391 533.557C490.716 534.447 499.241 538.013 502.494 536.446C502.644 536.374 502.77 536.258 502.908 536.164C504.195 527.446 503.432 517.829 503.409 508.998L503.472 460.817C503.601 453.194 503.855 445.544 503.595 437.924C502.504 428.607 504.502 419.234 501.942 410.023C502.366 410.017 502.31 410.067 502.769 409.607C504.183 408.189 503.764 404.081 503.753 402.189C503.717 396.065 504.236 390.032 504.355 383.926C504.478 377.534 504.056 371.1 504.587 364.716C505.256 356.664 507.216 348.815 507.536 340.694C507.773 334.689 507.606 328.963 506.902 322.996C506.592 320.366 505.36 314.343 507.01 312.257C507.709 313.262 508.109 314.165 508.555 315.293C507.908 317.164 507.954 318.08 508.425 319.99L508.802 320.171C508.768 318.096 508.889 316.294 509.345 314.268Z"/>
</svg>
